<?xml version="1.0" encoding="utf-8" standalone="no"?>
<!DOCTYPE svg PUBLIC "-//W3C//DTD SVG 1.1//EN"
  "http://www.w3.org/Graphics/SVG/1.1/DTD/svg11.dtd">
<svg xmlns:xlink="http://www.w3.org/1999/xlink" width="576pt" height="360pt" viewBox="0 0 576 360" xmlns="http://www.w3.org/2000/svg" version="1.1">
 <metadata>
  <rdf:RDF xmlns:dc="http://purl.org/dc/elements/1.1/" xmlns:cc="http://creativecommons.org/ns#" xmlns:rdf="http://www.w3.org/1999/02/22-rdf-syntax-ns#">
   <cc:Work>
    <dc:type rdf:resource="http://purl.org/dc/dcmitype/StillImage"/>
    <dc:date>2026-09-11T18:09:22.809286</dc:date>
    <dc:format>image/svg+xml</dc:format>
    <dc:creator>
     <cc:Agent>
      <dc:title>Matplotlib v3.11.0, https://matplotlib.org/</dc:title>
     </cc:Agent>
    </dc:creator>
   </cc:Work>
  </rdf:RDF>
 </metadata>
 <defs>
  <style type="text/css">*{stroke-linejoin: round; stroke-linecap: butt}</style>
 </defs>
 <g id="figure_1">
  <g id="patch_1">
   <path d="M 0 360 
L 576 360 
L 576 0 
L 0 0 
z
" style="fill: #ffffff"/>
  </g>
  <g id="axes_1">
   <g id="patch_2">
    <path d="M 72 320.4 
L 518.4 320.4 
L 518.4 43.2 
L 72 43.2 
z
" style="fill: #ffffff"/>
   </g>
   <g id="FillBetweenPolyCollection_1">
    <defs>
     <path id="md2e37da2c9" d="M 72 -316.8 
L 72 -100.062066 
L 72.894589 -99.901177 
L 73.789178 -99.740287 
L 74.683768 -99.579397 
L 75.578357 -99.418507 
L 76.472946 -99.257618 
L 77.367535 -99.096728 
L 78.262124 -98.935838 
L 79.156713 -98.774948 
L 80.051303 -98.614059 
L 80.945892 -98.453169 
L 81.840481 -98.292279 
L 82.73507 -98.131389 
L 83.629659 -97.9705 
L 84.524248 -97.80961 
L 85.418838 -97.64872 
L 86.313427 -97.48783 
L 87.208016 -97.326941 
L 88.102605 -97.166051 
L 88.997194 -97.005161 
L 89.891784 -96.844271 
L 90.786373 -96.683382 
L 91.680962 -96.522492 
L 92.575551 -96.361602 
L 93.47014 -96.200712 
L 94.364729 -96.039823 
L 95.259319 -95.878933 
L 96.153908 -95.718043 
L 97.048497 -95.557154 
L 97.943086 -95.396264 
L 98.837675 -95.235374 
L 99.732265 -95.074484 
L 100.626854 -94.913595 
L 101.521443 -94.752705 
L 102.416032 -94.591815 
L 103.310621 -94.430925 
L 104.20521 -94.270036 
L 105.0998 -94.109146 
L 105.994389 -93.948256 
L 106.888978 -93.787366 
L 107.783567 -93.626477 
L 108.678156 -93.465587 
L 109.572745 -93.304697 
L 110.467335 -93.143807 
L 111.361924 -92.982918 
L 112.256513 -92.822028 
L 113.151102 -92.661138 
L 114.045691 -92.500248 
L 114.940281 -92.339359 
L 115.83487 -92.178469 
L 116.729459 -92.017579 
L 117.624048 -91.856689 
L 118.518637 -91.6958 
L 119.413226 -91.53491 
L 120.307816 -91.37402 
L 121.202405 -91.21313 
L 122.096994 -91.052241 
L 122.991583 -90.891351 
L 123.886172 -90.730461 
L 124.780762 -90.569571 
L 125.675351 -90.408682 
L 126.56994 -90.247792 
L 127.464529 -90.086902 
L 128.359118 -89.926012 
L 129.253707 -89.765123 
L 130.148297 -89.604233 
L 131.042886 -89.443343 
L 131.937475 -89.282454 
L 132.832064 -89.121564 
L 133.726653 -88.960674 
L 134.621242 -88.799784 
L 135.515832 -88.638895 
L 136.410421 -88.478005 
L 137.30501 -88.317115 
L 138.199599 -88.156225 
L 139.094188 -87.995336 
L 139.988778 -87.834446 
L 140.883367 -87.673556 
L 141.777956 -87.512666 
L 142.672545 -87.351777 
L 143.567134 -87.190887 
L 144.461723 -87.029997 
L 145.356313 -86.869107 
L 146.250902 -86.708218 
L 147.145491 -86.547328 
L 148.04008 -86.386438 
L 148.934669 -86.225548 
L 149.829259 -86.064659 
L 150.723848 -85.903769 
L 151.618437 -85.742879 
L 152.513026 -85.581989 
L 153.407615 -85.4211 
L 154.302204 -85.26021 
L 155.196794 -85.09932 
L 156.091383 -84.93843 
L 156.985972 -84.777541 
L 157.880561 -84.616651 
L 158.77515 -84.455761 
L 159.669739 -84.294871 
L 160.564329 -84.133982 
L 161.458918 -83.973092 
L 162.353507 -83.812202 
L 163.248096 -83.651313 
L 164.142685 -83.490423 
L 165.037275 -83.329533 
L 165.931864 -83.168643 
L 166.826453 -83.007754 
L 167.721042 -82.846864 
L 168.615631 -82.685974 
L 169.51022 -82.525084 
L 170.40481 -82.364195 
L 171.299399 -82.203305 
L 172.193988 -82.042415 
L 173.088577 -81.881525 
L 173.983166 -81.720636 
L 174.877756 -81.559746 
L 175.772345 -81.398856 
L 176.666934 -81.237966 
L 177.561523 -81.077077 
L 178.456112 -80.916187 
L 179.350701 -80.755297 
L 180.245291 -80.594407 
L 181.13988 -80.433518 
L 182.034469 -80.272628 
L 182.929058 -80.111738 
L 183.823647 -79.950848 
L 184.718236 -79.789959 
L 185.612826 -79.629069 
L 186.507415 -79.468179 
L 187.402004 -79.307289 
L 188.296593 -79.1464 
L 189.191182 -78.98551 
L 190.085772 -78.82462 
L 190.980361 -78.66373 
L 191.87495 -78.502841 
L 192.769539 -78.341951 
L 193.664128 -78.181061 
L 194.558717 -78.020171 
L 195.453307 -77.859282 
L 196.347896 -77.698392 
L 197.242485 -77.537502 
L 198.137074 -77.376613 
L 199.031663 -77.215723 
L 199.926253 -77.054833 
L 200.820842 -76.893943 
L 201.715431 -76.733054 
L 202.61002 -76.572164 
L 203.504609 -76.411274 
L 204.399198 -76.250384 
L 205.293788 -76.089495 
L 206.188377 -75.928605 
L 207.082966 -75.767715 
L 207.977555 -75.606825 
L 208.872144 -75.445936 
L 209.766733 -75.285046 
L 210.661323 -75.124156 
L 211.555912 -74.963266 
L 212.450501 -74.802377 
L 213.34509 -74.641487 
L 214.239679 -74.480597 
L 215.134269 -74.319707 
L 216.028858 -74.158818 
L 216.923447 -73.997928 
L 217.818036 -73.837038 
L 218.712625 -73.676148 
L 219.607214 -73.515259 
L 220.501804 -73.354369 
L 221.396393 -73.193479 
L 222.290982 -73.032589 
L 223.185571 -72.8717 
L 224.08016 -72.71081 
L 224.974749 -72.54992 
L 225.869339 -72.38903 
L 226.763928 -72.228141 
L 227.658517 -72.067251 
L 228.553106 -71.906361 
L 229.447695 -71.745471 
L 230.342285 -71.584582 
L 231.236874 -71.423692 
L 232.131463 -71.262802 
L 233.026052 -71.101913 
L 233.920641 -70.941023 
L 234.81523 -70.780133 
L 235.70982 -70.619243 
L 236.604409 -70.458354 
L 237.498998 -70.297464 
L 238.393587 -70.136574 
L 239.288176 -69.975684 
L 240.182766 -69.814795 
L 241.077355 -69.653905 
L 241.971944 -69.493015 
L 242.866533 -69.332125 
L 243.761122 -69.171236 
L 244.655711 -69.010346 
L 245.550301 -68.849456 
L 246.44489 -68.688566 
L 247.339479 -68.527677 
L 248.234068 -68.366787 
L 249.128657 -68.205897 
L 250.023246 -68.045007 
L 250.917836 -67.884118 
L 251.812425 -67.723228 
L 252.707014 -67.562338 
L 253.601603 -67.401448 
L 254.496192 -67.240559 
L 255.390782 -67.079669 
L 256.285371 -66.918779 
L 257.17996 -66.757889 
L 258.074549 -66.597 
L 258.969138 -66.43611 
L 259.863727 -66.27522 
L 260.758317 -66.11433 
L 261.652906 -65.953441 
L 262.547495 -65.792551 
L 263.442084 -65.631661 
L 264.336673 -65.470771 
L 265.231263 -65.309882 
L 266.125852 -65.148992 
L 267.020441 -64.988102 
L 267.91503 -64.827213 
L 268.809619 -64.666323 
L 269.704208 -64.505433 
L 270.598798 -64.344543 
L 271.493387 -64.183654 
L 272.387976 -64.022764 
L 273.282565 -63.861874 
L 274.177154 -63.700984 
L 275.071743 -63.540095 
L 275.966333 -63.379205 
L 276.860922 -63.218315 
L 277.755511 -63.057425 
L 278.6501 -62.896536 
L 279.544689 -62.735646 
L 280.439279 -62.574756 
L 281.333868 -62.413866 
L 282.228457 -62.252977 
L 283.123046 -62.092087 
L 284.017635 -61.931197 
L 284.912224 -61.770307 
L 285.806814 -61.609418 
L 286.701403 -61.448528 
L 287.595992 -61.287638 
L 288.490581 -61.126748 
L 289.38517 -60.965859 
L 290.27976 -60.804969 
L 291.174349 -60.644079 
L 292.068938 -60.483189 
L 292.963527 -60.3223 
L 293.858116 -60.16141 
L 294.752705 -60.00052 
L 295.647295 -59.83963 
L 296.541884 -59.678741 
L 297.436473 -59.517851 
L 298.331062 -59.356961 
L 299.225651 -59.196072 
L 300.12024 -59.035182 
L 301.01483 -58.874292 
L 301.909419 -58.713402 
L 302.804008 -58.552513 
L 303.698597 -58.391623 
L 304.593186 -58.230733 
L 305.487776 -58.069843 
L 306.382365 -57.908954 
L 307.276954 -57.748064 
L 308.171543 -57.587174 
L 309.066132 -57.426284 
L 309.960721 -57.265395 
L 310.855311 -57.104505 
L 311.7499 -56.943615 
L 312.644489 -56.782725 
L 313.539078 -56.621836 
L 314.433667 -56.460946 
L 315.328257 -56.300056 
L 316.222846 -56.139166 
L 317.117435 -55.978277 
L 318.012024 -55.817387 
L 318.906613 -55.656497 
L 319.801202 -55.495607 
L 320.695792 -55.334718 
L 321.590381 -55.173828 
L 322.48497 -55.012938 
L 323.379559 -54.852048 
L 324.274148 -54.691159 
L 325.168737 -54.530269 
L 326.063327 -54.369379 
L 326.957916 -54.208489 
L 327.852505 -54.0476 
L 328.747094 -53.88671 
L 329.641683 -53.72582 
L 330.536273 -53.56493 
L 331.430862 -53.404041 
L 332.325451 -53.243151 
L 333.22004 -53.082261 
L 334.114629 -52.921372 
L 335.009218 -52.760482 
L 335.903808 -52.599592 
L 336.798397 -52.438702 
L 337.692986 -52.277813 
L 338.587575 -52.116923 
L 339.482164 -51.956033 
L 340.376754 -51.795143 
L 341.271343 -51.634254 
L 342.165932 -51.473364 
L 343.060521 -51.312474 
L 343.95511 -51.151584 
L 344.849699 -50.990695 
L 345.744289 -50.829805 
L 346.638878 -50.668915 
L 347.533467 -50.508025 
L 348.428056 -50.347136 
L 349.322645 -50.186246 
L 350.217234 -50.025356 
L 351.111824 -49.864466 
L 352.006413 -49.703577 
L 352.901002 -49.542687 
L 353.795591 -49.381797 
L 354.69018 -49.220907 
L 355.58477 -49.060018 
L 356.479359 -48.899128 
L 357.373948 -48.738238 
L 358.268537 -48.577348 
L 359.163126 -48.416459 
L 360.057715 -48.255569 
L 360.952305 -48.094679 
L 361.846894 -47.933789 
L 362.741483 -47.7729 
L 363.636072 -47.61201 
L 364.530661 -47.45112 
L 365.425251 -47.29023 
L 366.31984 -47.129341 
L 367.214429 -46.968451 
L 368.109018 -46.807561 
L 369.003607 -46.646672 
L 369.898196 -46.485782 
L 370.792786 -46.324892 
L 371.687375 -46.164002 
L 372.581964 -46.003113 
L 373.476553 -45.842223 
L 374.371142 -45.681333 
L 375.265731 -45.520443 
L 376.160321 -45.359554 
L 377.05491 -45.198664 
L 377.949499 -45.037774 
L 378.844088 -44.876884 
L 379.738677 -44.715995 
L 380.633267 -44.555105 
L 381.527856 -44.394215 
L 382.422445 -44.233325 
L 383.317034 -44.072436 
L 384.211623 -43.911546 
L 385.106212 -43.750656 
L 386.000802 -43.589766 
L 386.895391 -43.428877 
L 387.78998 -43.267987 
L 388.684569 -43.107097 
L 389.579158 -42.946207 
L 390.473747 -42.785318 
L 391.368337 -42.624428 
L 392.262926 -42.463538 
L 393.157515 -42.302648 
L 394.052104 -42.141759 
L 394.946693 -41.980869 
L 395.841283 -41.819979 
L 396.735872 -41.659089 
L 397.630461 -41.4982 
L 398.52505 -41.33731 
L 399.419639 -41.17642 
L 400.314228 -41.01553 
L 401.208818 -40.854641 
L 402.103407 -40.693751 
L 402.997996 -40.532861 
L 403.892585 -40.371972 
L 404.787174 -40.211082 
L 405.681764 -40.050192 
L 406.576353 -39.889302 
L 407.470942 -39.728413 
L 408.365531 -39.567523 
L 409.26012 -39.406633 
L 410.154709 -39.245743 
L 411.049299 -39.084854 
L 411.943888 -38.923964 
L 412.838477 -38.763074 
L 413.733066 -38.602184 
L 414.627655 -38.441295 
L 415.522244 -38.280405 
L 416.416834 -38.119515 
L 417.311423 -37.958625 
L 418.206012 -37.797736 
L 419.100601 -37.636846 
L 419.99519 -37.475956 
L 420.88978 -37.315066 
L 421.784369 -37.154177 
L 422.678958 -36.993287 
L 423.573547 -36.832397 
L 424.468136 -36.671507 
L 425.362725 -36.510618 
L 426.257315 -36.349728 
L 427.151904 -36.188838 
L 428.046493 -36.027948 
L 428.941082 -35.867059 
L 429.835671 -35.706169 
L 430.730261 -35.545279 
L 431.62485 -35.384389 
L 432.519439 -35.2235 
L 433.414028 -35.06261 
L 434.308617 -34.90172 
L 435.203206 -34.740831 
L 436.097796 -34.579941 
L 436.992385 -34.419051 
L 437.886974 -34.258161 
L 438.781563 -34.097272 
L 439.676152 -33.936382 
L 440.570741 -33.775492 
L 441.465331 -33.614602 
L 442.35992 -33.453713 
L 443.254509 -33.292823 
L 444.149098 -33.131933 
L 445.043687 -32.971043 
L 445.938277 -32.810154 
L 446.832866 -32.649264 
L 447.727455 -32.488374 
L 448.622044 -32.327484 
L 449.516633 -32.166595 
L 450.411222 -32.005705 
L 451.305812 -31.844815 
L 452.200401 -31.683925 
L 453.09499 -31.523036 
L 453.989579 -31.362146 
L 454.884168 -31.201256 
L 455.778758 -31.040366 
L 456.673347 -30.879477 
L 457.567936 -30.718587 
L 458.462525 -30.557697 
L 459.357114 -30.396807 
L 460.251703 -30.235918 
L 461.146293 -30.075028 
L 462.040882 -29.914138 
L 462.935471 -29.753248 
L 463.83006 -29.592359 
L 464.724649 -29.431469 
L 465.619238 -29.270579 
L 466.513828 -29.109689 
L 467.408417 -28.9488 
L 468.303006 -28.78791 
L 469.197595 -28.62702 
L 470.092184 -28.466131 
L 470.986774 -28.305241 
L 471.881363 -28.144351 
L 472.775952 -27.983461 
L 473.670541 -27.822572 
L 474.56513 -27.661682 
L 475.459719 -27.500792 
L 476.354309 -27.339902 
L 477.248898 -27.179013 
L 478.143487 -27.018123 
L 479.038076 -26.857233 
L 479.932665 -26.696343 
L 480.827255 -26.535454 
L 481.721844 -26.374564 
L 482.616433 -26.213674 
L 483.511022 -26.052784 
L 484.405611 -25.891895 
L 485.3002 -25.731005 
L 486.19479 -25.570115 
L 487.089379 -25.409225 
L 487.983968 -25.248336 
L 488.878557 -25.087446 
L 489.773146 -24.926556 
L 490.667735 -24.765666 
L 491.562325 -24.604777 
L 492.456914 -24.443887 
L 493.351503 -24.282997 
L 494.246092 -24.122107 
L 495.140681 -23.961218 
L 496.035271 -23.800328 
L 496.92986 -23.639438 
L 497.824449 -23.478548 
L 498.719038 -23.317659 
L 499.613627 -23.156769 
L 500.508216 -22.995879 
L 501.402806 -22.834989 
L 502.297395 -22.6741 
L 503.191984 -22.51321 
L 504.086573 -22.35232 
L 504.981162 -22.191431 
L 505.875752 -22.030541 
L 506.770341 -21.869651 
L 507.66493 -21.708761 
L 508.559519 -21.547872 
L 509.454108 -21.386982 
L 510.348697 -21.226092 
L 511.243287 -21.065202 
L 512.137876 -20.904313 
L 513.032465 -20.743423 
L 513.927054 -20.582533 
L 514.821643 -20.421643 
L 515.716232 -20.260754 
L 516.610822 -20.099864 
L 517.505411 -19.938974 
L 518.4 -19.778084 
L 518.4 -316.8 
L 518.4 -316.8 
L 517.505411 -316.8 
L 516.610822 -316.8 
L 515.716232 -316.8 
L 514.821643 -316.8 
L 513.927054 -316.8 
L 513.032465 -316.8 
L 512.137876 -316.8 
L 511.243287 -316.8 
L 510.348697 -316.8 
L 509.454108 -316.8 
L 508.559519 -316.8 
L 507.66493 -316.8 
L 506.770341 -316.8 
L 505.875752 -316.8 
L 504.981162 -316.8 
L 504.086573 -316.8 
L 503.191984 -316.8 
L 502.297395 -316.8 
L 501.402806 -316.8 
L 500.508216 -316.8 
L 499.613627 -316.8 
L 498.719038 -316.8 
L 497.824449 -316.8 
L 496.92986 -316.8 
L 496.035271 -316.8 
L 495.140681 -316.8 
L 494.246092 -316.8 
L 493.351503 -316.8 
L 492.456914 -316.8 
L 491.562325 -316.8 
L 490.667735 -316.8 
L 489.773146 -316.8 
L 488.878557 -316.8 
L 487.983968 -316.8 
L 487.089379 -316.8 
L 486.19479 -316.8 
L 485.3002 -316.8 
L 484.405611 -316.8 
L 483.511022 -316.8 
L 482.616433 -316.8 
L 481.721844 -316.8 
L 480.827255 -316.8 
L 479.932665 -316.8 
L 479.038076 -316.8 
L 478.143487 -316.8 
L 477.248898 -316.8 
L 476.354309 -316.8 
L 475.459719 -316.8 
L 474.56513 -316.8 
L 473.670541 -316.8 
L 472.775952 -316.8 
L 471.881363 -316.8 
L 470.986774 -316.8 
L 470.092184 -316.8 
L 469.197595 -316.8 
L 468.303006 -316.8 
L 467.408417 -316.8 
L 466.513828 -316.8 
L 465.619238 -316.8 
L 464.724649 -316.8 
L 463.83006 -316.8 
L 462.935471 -316.8 
L 462.040882 -316.8 
L 461.146293 -316.8 
L 460.251703 -316.8 
L 459.357114 -316.8 
L 458.462525 -316.8 
L 457.567936 -316.8 
L 456.673347 -316.8 
L 455.778758 -316.8 
L 454.884168 -316.8 
L 453.989579 -316.8 
L 453.09499 -316.8 
L 452.200401 -316.8 
L 451.305812 -316.8 
L 450.411222 -316.8 
L 449.516633 -316.8 
L 448.622044 -316.8 
L 447.727455 -316.8 
L 446.832866 -316.8 
L 445.938277 -316.8 
L 445.043687 -316.8 
L 444.149098 -316.8 
L 443.254509 -316.8 
L 442.35992 -316.8 
L 441.465331 -316.8 
L 440.570741 -316.8 
L 439.676152 -316.8 
L 438.781563 -316.8 
L 437.886974 -316.8 
L 436.992385 -316.8 
L 436.097796 -316.8 
L 435.203206 -316.8 
L 434.308617 -316.8 
L 433.414028 -316.8 
L 432.519439 -316.8 
L 431.62485 -316.8 
L 430.730261 -316.8 
L 429.835671 -316.8 
L 428.941082 -316.8 
L 428.046493 -316.8 
L 427.151904 -316.8 
L 426.257315 -316.8 
L 425.362725 -316.8 
L 424.468136 -316.8 
L 423.573547 -316.8 
L 422.678958 -316.8 
L 421.784369 -316.8 
L 420.88978 -316.8 
L 419.99519 -316.8 
L 419.100601 -316.8 
L 418.206012 -316.8 
L 417.311423 -316.8 
L 416.416834 -316.8 
L 415.522244 -316.8 
L 414.627655 -316.8 
L 413.733066 -316.8 
L 412.838477 -316.8 
L 411.943888 -316.8 
L 411.049299 -316.8 
L 410.154709 -316.8 
L 409.26012 -316.8 
L 408.365531 -316.8 
L 407.470942 -316.8 
L 406.576353 -316.8 
L 405.681764 -316.8 
L 404.787174 -316.8 
L 403.892585 -316.8 
L 402.997996 -316.8 
L 402.103407 -316.8 
L 401.208818 -316.8 
L 400.314228 -316.8 
L 399.419639 -316.8 
L 398.52505 -316.8 
L 397.630461 -316.8 
L 396.735872 -316.8 
L 395.841283 -316.8 
L 394.946693 -316.8 
L 394.052104 -316.8 
L 393.157515 -316.8 
L 392.262926 -316.8 
L 391.368337 -316.8 
L 390.473747 -316.8 
L 389.579158 -316.8 
L 388.684569 -316.8 
L 387.78998 -316.8 
L 386.895391 -316.8 
L 386.000802 -316.8 
L 385.106212 -316.8 
L 384.211623 -316.8 
L 383.317034 -316.8 
L 382.422445 -316.8 
L 381.527856 -316.8 
L 380.633267 -316.8 
L 379.738677 -316.8 
L 378.844088 -316.8 
L 377.949499 -316.8 
L 377.05491 -316.8 
L 376.160321 -316.8 
L 375.265731 -316.8 
L 374.371142 -316.8 
L 373.476553 -316.8 
L 372.581964 -316.8 
L 371.687375 -316.8 
L 370.792786 -316.8 
L 369.898196 -316.8 
L 369.003607 -316.8 
L 368.109018 -316.8 
L 367.214429 -316.8 
L 366.31984 -316.8 
L 365.425251 -316.8 
L 364.530661 -316.8 
L 363.636072 -316.8 
L 362.741483 -316.8 
L 361.846894 -316.8 
L 360.952305 -316.8 
L 360.057715 -316.8 
L 359.163126 -316.8 
L 358.268537 -316.8 
L 357.373948 -316.8 
L 356.479359 -316.8 
L 355.58477 -316.8 
L 354.69018 -316.8 
L 353.795591 -316.8 
L 352.901002 -316.8 
L 352.006413 -316.8 
L 351.111824 -316.8 
L 350.217234 -316.8 
L 349.322645 -316.8 
L 348.428056 -316.8 
L 347.533467 -316.8 
L 346.638878 -316.8 
L 345.744289 -316.8 
L 344.849699 -316.8 
L 343.95511 -316.8 
L 343.060521 -316.8 
L 342.165932 -316.8 
L 341.271343 -316.8 
L 340.376754 -316.8 
L 339.482164 -316.8 
L 338.587575 -316.8 
L 337.692986 -316.8 
L 336.798397 -316.8 
L 335.903808 -316.8 
L 335.009218 -316.8 
L 334.114629 -316.8 
L 333.22004 -316.8 
L 332.325451 -316.8 
L 331.430862 -316.8 
L 330.536273 -316.8 
L 329.641683 -316.8 
L 328.747094 -316.8 
L 327.852505 -316.8 
L 326.957916 -316.8 
L 326.063327 -316.8 
L 325.168737 -316.8 
L 324.274148 -316.8 
L 323.379559 -316.8 
L 322.48497 -316.8 
L 321.590381 -316.8 
L 320.695792 -316.8 
L 319.801202 -316.8 
L 318.906613 -316.8 
L 318.012024 -316.8 
L 317.117435 -316.8 
L 316.222846 -316.8 
L 315.328257 -316.8 
L 314.433667 -316.8 
L 313.539078 -316.8 
L 312.644489 -316.8 
L 311.7499 -316.8 
L 310.855311 -316.8 
L 309.960721 -316.8 
L 309.066132 -316.8 
L 308.171543 -316.8 
L 307.276954 -316.8 
L 306.382365 -316.8 
L 305.487776 -316.8 
L 304.593186 -316.8 
L 303.698597 -316.8 
L 302.804008 -316.8 
L 301.909419 -316.8 
L 301.01483 -316.8 
L 300.12024 -316.8 
L 299.225651 -316.8 
L 298.331062 -316.8 
L 297.436473 -316.8 
L 296.541884 -316.8 
L 295.647295 -316.8 
L 294.752705 -316.8 
L 293.858116 -316.8 
L 292.963527 -316.8 
L 292.068938 -316.8 
L 291.174349 -316.8 
L 290.27976 -316.8 
L 289.38517 -316.8 
L 288.490581 -316.8 
L 287.595992 -316.8 
L 286.701403 -316.8 
L 285.806814 -316.8 
L 284.912224 -316.8 
L 284.017635 -316.8 
L 283.123046 -316.8 
L 282.228457 -316.8 
L 281.333868 -316.8 
L 280.439279 -316.8 
L 279.544689 -316.8 
L 278.6501 -316.8 
L 277.755511 -316.8 
L 276.860922 -316.8 
L 275.966333 -316.8 
L 275.071743 -316.8 
L 274.177154 -316.8 
L 273.282565 -316.8 
L 272.387976 -316.8 
L 271.493387 -316.8 
L 270.598798 -316.8 
L 269.704208 -316.8 
L 268.809619 -316.8 
L 267.91503 -316.8 
L 267.020441 -316.8 
L 266.125852 -316.8 
L 265.231263 -316.8 
L 264.336673 -316.8 
L 263.442084 -316.8 
L 262.547495 -316.8 
L 261.652906 -316.8 
L 260.758317 -316.8 
L 259.863727 -316.8 
L 258.969138 -316.8 
L 258.074549 -316.8 
L 257.17996 -316.8 
L 256.285371 -316.8 
L 255.390782 -316.8 
L 254.496192 -316.8 
L 253.601603 -316.8 
L 252.707014 -316.8 
L 251.812425 -316.8 
L 250.917836 -316.8 
L 250.023246 -316.8 
L 249.128657 -316.8 
L 248.234068 -316.8 
L 247.339479 -316.8 
L 246.44489 -316.8 
L 245.550301 -316.8 
L 244.655711 -316.8 
L 243.761122 -316.8 
L 242.866533 -316.8 
L 241.971944 -316.8 
L 241.077355 -316.8 
L 240.182766 -316.8 
L 239.288176 -316.8 
L 238.393587 -316.8 
L 237.498998 -316.8 
L 236.604409 -316.8 
L 235.70982 -316.8 
L 234.81523 -316.8 
L 233.920641 -316.8 
L 233.026052 -316.8 
L 232.131463 -316.8 
L 231.236874 -316.8 
L 230.342285 -316.8 
L 229.447695 -316.8 
L 228.553106 -316.8 
L 227.658517 -316.8 
L 226.763928 -316.8 
L 225.869339 -316.8 
L 224.974749 -316.8 
L 224.08016 -316.8 
L 223.185571 -316.8 
L 222.290982 -316.8 
L 221.396393 -316.8 
L 220.501804 -316.8 
L 219.607214 -316.8 
L 218.712625 -316.8 
L 217.818036 -316.8 
L 216.923447 -316.8 
L 216.028858 -316.8 
L 215.134269 -316.8 
L 214.239679 -316.8 
L 213.34509 -316.8 
L 212.450501 -316.8 
L 211.555912 -316.8 
L 210.661323 -316.8 
L 209.766733 -316.8 
L 208.872144 -316.8 
L 207.977555 -316.8 
L 207.082966 -316.8 
L 206.188377 -316.8 
L 205.293788 -316.8 
L 204.399198 -316.8 
L 203.504609 -316.8 
L 202.61002 -316.8 
L 201.715431 -316.8 
L 200.820842 -316.8 
L 199.926253 -316.8 
L 199.031663 -316.8 
L 198.137074 -316.8 
L 197.242485 -316.8 
L 196.347896 -316.8 
L 195.453307 -316.8 
L 194.558717 -316.8 
L 193.664128 -316.8 
L 192.769539 -316.8 
L 191.87495 -316.8 
L 190.980361 -316.8 
L 190.085772 -316.8 
L 189.191182 -316.8 
L 188.296593 -316.8 
L 187.402004 -316.8 
L 186.507415 -316.8 
L 185.612826 -316.8 
L 184.718236 -316.8 
L 183.823647 -316.8 
L 182.929058 -316.8 
L 182.034469 -316.8 
L 181.13988 -316.8 
L 180.245291 -316.8 
L 179.350701 -316.8 
L 178.456112 -316.8 
L 177.561523 -316.8 
L 176.666934 -316.8 
L 175.772345 -316.8 
L 174.877756 -316.8 
L 173.983166 -316.8 
L 173.088577 -316.8 
L 172.193988 -316.8 
L 171.299399 -316.8 
L 170.40481 -316.8 
L 169.51022 -316.8 
L 168.615631 -316.8 
L 167.721042 -316.8 
L 166.826453 -316.8 
L 165.931864 -316.8 
L 165.037275 -316.8 
L 164.142685 -316.8 
L 163.248096 -316.8 
L 162.353507 -316.8 
L 161.458918 -316.8 
L 160.564329 -316.8 
L 159.669739 -316.8 
L 158.77515 -316.8 
L 157.880561 -316.8 
L 156.985972 -316.8 
L 156.091383 -316.8 
L 155.196794 -316.8 
L 154.302204 -316.8 
L 153.407615 -316.8 
L 152.513026 -316.8 
L 151.618437 -316.8 
L 150.723848 -316.8 
L 149.829259 -316.8 
L 148.934669 -316.8 
L 148.04008 -316.8 
L 147.145491 -316.8 
L 146.250902 -316.8 
L 145.356313 -316.8 
L 144.461723 -316.8 
L 143.567134 -316.8 
L 142.672545 -316.8 
L 141.777956 -316.8 
L 140.883367 -316.8 
L 139.988778 -316.8 
L 139.094188 -316.8 
L 138.199599 -316.8 
L 137.30501 -316.8 
L 136.410421 -316.8 
L 135.515832 -316.8 
L 134.621242 -316.8 
L 133.726653 -316.8 
L 132.832064 -316.8 
L 131.937475 -316.8 
L 131.042886 -316.8 
L 130.148297 -316.8 
L 129.253707 -316.8 
L 128.359118 -316.8 
L 127.464529 -316.8 
L 126.56994 -316.8 
L 125.675351 -316.8 
L 124.780762 -316.8 
L 123.886172 -316.8 
L 122.991583 -316.8 
L 122.096994 -316.8 
L 121.202405 -316.8 
L 120.307816 -316.8 
L 119.413226 -316.8 
L 118.518637 -316.8 
L 117.624048 -316.8 
L 116.729459 -316.8 
L 115.83487 -316.8 
L 114.940281 -316.8 
L 114.045691 -316.8 
L 113.151102 -316.8 
L 112.256513 -316.8 
L 111.361924 -316.8 
L 110.467335 -316.8 
L 109.572745 -316.8 
L 108.678156 -316.8 
L 107.783567 -316.8 
L 106.888978 -316.8 
L 105.994389 -316.8 
L 105.0998 -316.8 
L 104.20521 -316.8 
L 103.310621 -316.8 
L 102.416032 -316.8 
L 101.521443 -316.8 
L 100.626854 -316.8 
L 99.732265 -316.8 
L 98.837675 -316.8 
L 97.943086 -316.8 
L 97.048497 -316.8 
L 96.153908 -316.8 
L 95.259319 -316.8 
L 94.364729 -316.8 
L 93.47014 -316.8 
L 92.575551 -316.8 
L 91.680962 -316.8 
L 90.786373 -316.8 
L 89.891784 -316.8 
L 88.997194 -316.8 
L 88.102605 -316.8 
L 87.208016 -316.8 
L 86.313427 -316.8 
L 85.418838 -316.8 
L 84.524248 -316.8 
L 83.629659 -316.8 
L 82.73507 -316.8 
L 81.840481 -316.8 
L 80.945892 -316.8 
L 80.051303 -316.8 
L 79.156713 -316.8 
L 78.262124 -316.8 
L 77.367535 -316.8 
L 76.472946 -316.8 
L 75.578357 -316.8 
L 74.683768 -316.8 
L 73.789178 -316.8 
L 72.894589 -316.8 
L 72 -316.8 
z
" style="stroke: #008000; stroke-opacity: 0.25"/>
    </defs>
    <g clip-path="url(#p7b2f0d2f66)">
     <use xlink:href="#md2e37da2c9" x="0" y="360" style="fill: #008000; fill-opacity: 0.25; stroke: #008000; stroke-opacity: 0.25"/>
    </g>
   </g>
   <g id="FillBetweenPolyCollection_2">
    <defs>
     <path id="m392b124f14" d="M 72 -100.062066 
L 72 -8.8 
L 72.894589 -8.8 
L 73.789178 -8.8 
L 74.683768 -8.8 
L 75.578357 -8.8 
L 76.472946 -8.8 
L 77.367535 -8.8 
L 78.262124 -8.8 
L 79.156713 -8.8 
L 80.051303 -8.8 
L 80.945892 -8.8 
L 81.840481 -8.8 
L 82.73507 -8.8 
L 83.629659 -8.8 
L 84.524248 -8.8 
L 85.418838 -8.8 
L 86.313427 -8.8 
L 87.208016 -8.8 
L 88.102605 -8.8 
L 88.997194 -8.8 
L 89.891784 -8.8 
L 90.786373 -8.8 
L 91.680962 -8.8 
L 92.575551 -8.8 
L 93.47014 -8.8 
L 94.364729 -8.8 
L 95.259319 -8.8 
L 96.153908 -8.8 
L 97.048497 -8.8 
L 97.943086 -8.8 
L 98.837675 -8.8 
L 99.732265 -8.8 
L 100.626854 -8.8 
L 101.521443 -8.8 
L 102.416032 -8.8 
L 103.310621 -8.8 
L 104.20521 -8.8 
L 105.0998 -8.8 
L 105.994389 -8.8 
L 106.888978 -8.8 
L 107.783567 -8.8 
L 108.678156 -8.8 
L 109.572745 -8.8 
L 110.467335 -8.8 
L 111.361924 -8.8 
L 112.256513 -8.8 
L 113.151102 -8.8 
L 114.045691 -8.8 
L 114.940281 -8.8 
L 115.83487 -8.8 
L 116.729459 -8.8 
L 117.624048 -8.8 
L 118.518637 -8.8 
L 119.413226 -8.8 
L 120.307816 -8.8 
L 121.202405 -8.8 
L 122.096994 -8.8 
L 122.991583 -8.8 
L 123.886172 -8.8 
L 124.780762 -8.8 
L 125.675351 -8.8 
L 126.56994 -8.8 
L 127.464529 -8.8 
L 128.359118 -8.8 
L 129.253707 -8.8 
L 130.148297 -8.8 
L 131.042886 -8.8 
L 131.937475 -8.8 
L 132.832064 -8.8 
L 133.726653 -8.8 
L 134.621242 -8.8 
L 135.515832 -8.8 
L 136.410421 -8.8 
L 137.30501 -8.8 
L 138.199599 -8.8 
L 139.094188 -8.8 
L 139.988778 -8.8 
L 140.883367 -8.8 
L 141.777956 -8.8 
L 142.672545 -8.8 
L 143.567134 -8.8 
L 144.461723 -8.8 
L 145.356313 -8.8 
L 146.250902 -8.8 
L 147.145491 -8.8 
L 148.04008 -8.8 
L 148.934669 -8.8 
L 149.829259 -8.8 
L 150.723848 -8.8 
L 151.618437 -8.8 
L 152.513026 -8.8 
L 153.407615 -8.8 
L 154.302204 -8.8 
L 155.196794 -8.8 
L 156.091383 -8.8 
L 156.985972 -8.8 
L 157.880561 -8.8 
L 158.77515 -8.8 
L 159.669739 -8.8 
L 160.564329 -8.8 
L 161.458918 -8.8 
L 162.353507 -8.8 
L 163.248096 -8.8 
L 164.142685 -8.8 
L 165.037275 -8.8 
L 165.931864 -8.8 
L 166.826453 -8.8 
L 167.721042 -8.8 
L 168.615631 -8.8 
L 169.51022 -8.8 
L 170.40481 -8.8 
L 171.299399 -8.8 
L 172.193988 -8.8 
L 173.088577 -8.8 
L 173.983166 -8.8 
L 174.877756 -8.8 
L 175.772345 -8.8 
L 176.666934 -8.8 
L 177.561523 -8.8 
L 178.456112 -8.8 
L 179.350701 -8.8 
L 180.245291 -8.8 
L 181.13988 -8.8 
L 182.034469 -8.8 
L 182.929058 -8.8 
L 183.823647 -8.8 
L 184.718236 -8.8 
L 185.612826 -8.8 
L 186.507415 -8.8 
L 187.402004 -8.8 
L 188.296593 -8.8 
L 189.191182 -8.8 
L 190.085772 -8.8 
L 190.980361 -8.8 
L 191.87495 -8.8 
L 192.769539 -8.8 
L 193.664128 -8.8 
L 194.558717 -8.8 
L 195.453307 -8.8 
L 196.347896 -8.8 
L 197.242485 -8.8 
L 198.137074 -8.8 
L 199.031663 -8.8 
L 199.926253 -8.8 
L 200.820842 -8.8 
L 201.715431 -8.8 
L 202.61002 -8.8 
L 203.504609 -8.8 
L 204.399198 -8.8 
L 205.293788 -8.8 
L 206.188377 -8.8 
L 207.082966 -8.8 
L 207.977555 -8.8 
L 208.872144 -8.8 
L 209.766733 -8.8 
L 210.661323 -8.8 
L 211.555912 -8.8 
L 212.450501 -8.8 
L 213.34509 -8.8 
L 214.239679 -8.8 
L 215.134269 -8.8 
L 216.028858 -8.8 
L 216.923447 -8.8 
L 217.818036 -8.8 
L 218.712625 -8.8 
L 219.607214 -8.8 
L 220.501804 -8.8 
L 221.396393 -8.8 
L 222.290982 -8.8 
L 223.185571 -8.8 
L 224.08016 -8.8 
L 224.974749 -8.8 
L 225.869339 -8.8 
L 226.763928 -8.8 
L 227.658517 -8.8 
L 228.553106 -8.8 
L 229.447695 -8.8 
L 230.342285 -8.8 
L 231.236874 -8.8 
L 232.131463 -8.8 
L 233.026052 -8.8 
L 233.920641 -8.8 
L 234.81523 -8.8 
L 235.70982 -8.8 
L 236.604409 -8.8 
L 237.498998 -8.8 
L 238.393587 -8.8 
L 239.288176 -8.8 
L 240.182766 -8.8 
L 241.077355 -8.8 
L 241.971944 -8.8 
L 242.866533 -8.8 
L 243.761122 -8.8 
L 244.655711 -8.8 
L 245.550301 -8.8 
L 246.44489 -8.8 
L 247.339479 -8.8 
L 248.234068 -8.8 
L 249.128657 -8.8 
L 250.023246 -8.8 
L 250.917836 -8.8 
L 251.812425 -8.8 
L 252.707014 -8.8 
L 253.601603 -8.8 
L 254.496192 -8.8 
L 255.390782 -8.8 
L 256.285371 -8.8 
L 257.17996 -8.8 
L 258.074549 -8.8 
L 258.969138 -8.8 
L 259.863727 -8.8 
L 260.758317 -8.8 
L 261.652906 -8.8 
L 262.547495 -8.8 
L 263.442084 -8.8 
L 264.336673 -8.8 
L 265.231263 -8.8 
L 266.125852 -8.8 
L 267.020441 -8.8 
L 267.91503 -8.8 
L 268.809619 -8.8 
L 269.704208 -8.8 
L 270.598798 -8.8 
L 271.493387 -8.8 
L 272.387976 -8.8 
L 273.282565 -8.8 
L 274.177154 -8.8 
L 275.071743 -8.8 
L 275.966333 -8.8 
L 276.860922 -8.8 
L 277.755511 -8.8 
L 278.6501 -8.8 
L 279.544689 -8.8 
L 280.439279 -8.8 
L 281.333868 -8.8 
L 282.228457 -8.8 
L 283.123046 -8.8 
L 284.017635 -8.8 
L 284.912224 -8.8 
L 285.806814 -8.8 
L 286.701403 -8.8 
L 287.595992 -8.8 
L 288.490581 -8.8 
L 289.38517 -8.8 
L 290.27976 -8.8 
L 291.174349 -8.8 
L 292.068938 -8.8 
L 292.963527 -8.8 
L 293.858116 -8.8 
L 294.752705 -8.8 
L 295.647295 -8.8 
L 296.541884 -8.8 
L 297.436473 -8.8 
L 298.331062 -8.8 
L 299.225651 -8.8 
L 300.12024 -8.8 
L 301.01483 -8.8 
L 301.909419 -8.8 
L 302.804008 -8.8 
L 303.698597 -8.8 
L 304.593186 -8.8 
L 305.487776 -8.8 
L 306.382365 -8.8 
L 307.276954 -8.8 
L 308.171543 -8.8 
L 309.066132 -8.8 
L 309.960721 -8.8 
L 310.855311 -8.8 
L 311.7499 -8.8 
L 312.644489 -8.8 
L 313.539078 -8.8 
L 314.433667 -8.8 
L 315.328257 -8.8 
L 316.222846 -8.8 
L 317.117435 -8.8 
L 318.012024 -8.8 
L 318.906613 -8.8 
L 319.801202 -8.8 
L 320.695792 -8.8 
L 321.590381 -8.8 
L 322.48497 -8.8 
L 323.379559 -8.8 
L 324.274148 -8.8 
L 325.168737 -8.8 
L 326.063327 -8.8 
L 326.957916 -8.8 
L 327.852505 -8.8 
L 328.747094 -8.8 
L 329.641683 -8.8 
L 330.536273 -8.8 
L 331.430862 -8.8 
L 332.325451 -8.8 
L 333.22004 -8.8 
L 334.114629 -8.8 
L 335.009218 -8.8 
L 335.903808 -8.8 
L 336.798397 -8.8 
L 337.692986 -8.8 
L 338.587575 -8.8 
L 339.482164 -8.8 
L 340.376754 -8.8 
L 341.271343 -8.8 
L 342.165932 -8.8 
L 343.060521 -8.8 
L 343.95511 -8.8 
L 344.849699 -8.8 
L 345.744289 -8.8 
L 346.638878 -8.8 
L 347.533467 -8.8 
L 348.428056 -8.8 
L 349.322645 -8.8 
L 350.217234 -8.8 
L 351.111824 -8.8 
L 352.006413 -8.8 
L 352.901002 -8.8 
L 353.795591 -8.8 
L 354.69018 -8.8 
L 355.58477 -8.8 
L 356.479359 -8.8 
L 357.373948 -8.8 
L 358.268537 -8.8 
L 359.163126 -8.8 
L 360.057715 -8.8 
L 360.952305 -8.8 
L 361.846894 -8.8 
L 362.741483 -8.8 
L 363.636072 -8.8 
L 364.530661 -8.8 
L 365.425251 -8.8 
L 366.31984 -8.8 
L 367.214429 -8.8 
L 368.109018 -8.8 
L 369.003607 -8.8 
L 369.898196 -8.8 
L 370.792786 -8.8 
L 371.687375 -8.8 
L 372.581964 -8.8 
L 373.476553 -8.8 
L 374.371142 -8.8 
L 375.265731 -8.8 
L 376.160321 -8.8 
L 377.05491 -8.8 
L 377.949499 -8.8 
L 378.844088 -8.8 
L 379.738677 -8.8 
L 380.633267 -8.8 
L 381.527856 -8.8 
L 382.422445 -8.8 
L 383.317034 -8.8 
L 384.211623 -8.8 
L 385.106212 -8.8 
L 386.000802 -8.8 
L 386.895391 -8.8 
L 387.78998 -8.8 
L 388.684569 -8.8 
L 389.579158 -8.8 
L 390.473747 -8.8 
L 391.368337 -8.8 
L 392.262926 -8.8 
L 393.157515 -8.8 
L 394.052104 -8.8 
L 394.946693 -8.8 
L 395.841283 -8.8 
L 396.735872 -8.8 
L 397.630461 -8.8 
L 398.52505 -8.8 
L 399.419639 -8.8 
L 400.314228 -8.8 
L 401.208818 -8.8 
L 402.103407 -8.8 
L 402.997996 -8.8 
L 403.892585 -8.8 
L 404.787174 -8.8 
L 405.681764 -8.8 
L 406.576353 -8.8 
L 407.470942 -8.8 
L 408.365531 -8.8 
L 409.26012 -8.8 
L 410.154709 -8.8 
L 411.049299 -8.8 
L 411.943888 -8.8 
L 412.838477 -8.8 
L 413.733066 -8.8 
L 414.627655 -8.8 
L 415.522244 -8.8 
L 416.416834 -8.8 
L 417.311423 -8.8 
L 418.206012 -8.8 
L 419.100601 -8.8 
L 419.99519 -8.8 
L 420.88978 -8.8 
L 421.784369 -8.8 
L 422.678958 -8.8 
L 423.573547 -8.8 
L 424.468136 -8.8 
L 425.362725 -8.8 
L 426.257315 -8.8 
L 427.151904 -8.8 
L 428.046493 -8.8 
L 428.941082 -8.8 
L 429.835671 -8.8 
L 430.730261 -8.8 
L 431.62485 -8.8 
L 432.519439 -8.8 
L 433.414028 -8.8 
L 434.308617 -8.8 
L 435.203206 -8.8 
L 436.097796 -8.8 
L 436.992385 -8.8 
L 437.886974 -8.8 
L 438.781563 -8.8 
L 439.676152 -8.8 
L 440.570741 -8.8 
L 441.465331 -8.8 
L 442.35992 -8.8 
L 443.254509 -8.8 
L 444.149098 -8.8 
L 445.043687 -8.8 
L 445.938277 -8.8 
L 446.832866 -8.8 
L 447.727455 -8.8 
L 448.622044 -8.8 
L 449.516633 -8.8 
L 450.411222 -8.8 
L 451.305812 -8.8 
L 452.200401 -8.8 
L 453.09499 -8.8 
L 453.989579 -8.8 
L 454.884168 -8.8 
L 455.778758 -8.8 
L 456.673347 -8.8 
L 457.567936 -8.8 
L 458.462525 -8.8 
L 459.357114 -8.8 
L 460.251703 -8.8 
L 461.146293 -8.8 
L 462.040882 -8.8 
L 462.935471 -8.8 
L 463.83006 -8.8 
L 464.724649 -8.8 
L 465.619238 -8.8 
L 466.513828 -8.8 
L 467.408417 -8.8 
L 468.303006 -8.8 
L 469.197595 -8.8 
L 470.092184 -8.8 
L 470.986774 -8.8 
L 471.881363 -8.8 
L 472.775952 -8.8 
L 473.670541 -8.8 
L 474.56513 -8.8 
L 475.459719 -8.8 
L 476.354309 -8.8 
L 477.248898 -8.8 
L 478.143487 -8.8 
L 479.038076 -8.8 
L 479.932665 -8.8 
L 480.827255 -8.8 
L 481.721844 -8.8 
L 482.616433 -8.8 
L 483.511022 -8.8 
L 484.405611 -8.8 
L 485.3002 -8.8 
L 486.19479 -8.8 
L 487.089379 -8.8 
L 487.983968 -8.8 
L 488.878557 -8.8 
L 489.773146 -8.8 
L 490.667735 -8.8 
L 491.562325 -8.8 
L 492.456914 -8.8 
L 493.351503 -8.8 
L 494.246092 -8.8 
L 495.140681 -8.8 
L 496.035271 -8.8 
L 496.92986 -8.8 
L 497.824449 -8.8 
L 498.719038 -8.8 
L 499.613627 -8.8 
L 500.508216 -8.8 
L 501.402806 -8.8 
L 502.297395 -8.8 
L 503.191984 -8.8 
L 504.086573 -8.8 
L 504.981162 -8.8 
L 505.875752 -8.8 
L 506.770341 -8.8 
L 507.66493 -8.8 
L 508.559519 -8.8 
L 509.454108 -8.8 
L 510.348697 -8.8 
L 511.243287 -8.8 
L 512.137876 -8.8 
L 513.032465 -8.8 
L 513.927054 -8.8 
L 514.821643 -8.8 
L 515.716232 -8.8 
L 516.610822 -8.8 
L 517.505411 -8.8 
L 518.4 -8.8 
L 518.4 -19.778084 
L 518.4 -19.778084 
L 517.505411 -19.938974 
L 516.610822 -20.099864 
L 515.716232 -20.260754 
L 514.821643 -20.421643 
L 513.927054 -20.582533 
L 513.032465 -20.743423 
L 512.137876 -20.904313 
L 511.243287 -21.065202 
L 510.348697 -21.226092 
L 509.454108 -21.386982 
L 508.559519 -21.547872 
L 507.66493 -21.708761 
L 506.770341 -21.869651 
L 505.875752 -22.030541 
L 504.981162 -22.191431 
L 504.086573 -22.35232 
L 503.191984 -22.51321 
L 502.297395 -22.6741 
L 501.402806 -22.834989 
L 500.508216 -22.995879 
L 499.613627 -23.156769 
L 498.719038 -23.317659 
L 497.824449 -23.478548 
L 496.92986 -23.639438 
L 496.035271 -23.800328 
L 495.140681 -23.961218 
L 494.246092 -24.122107 
L 493.351503 -24.282997 
L 492.456914 -24.443887 
L 491.562325 -24.604777 
L 490.667735 -24.765666 
L 489.773146 -24.926556 
L 488.878557 -25.087446 
L 487.983968 -25.248336 
L 487.089379 -25.409225 
L 486.19479 -25.570115 
L 485.3002 -25.731005 
L 484.405611 -25.891895 
L 483.511022 -26.052784 
L 482.616433 -26.213674 
L 481.721844 -26.374564 
L 480.827255 -26.535454 
L 479.932665 -26.696343 
L 479.038076 -26.857233 
L 478.143487 -27.018123 
L 477.248898 -27.179013 
L 476.354309 -27.339902 
L 475.459719 -27.500792 
L 474.56513 -27.661682 
L 473.670541 -27.822572 
L 472.775952 -27.983461 
L 471.881363 -28.144351 
L 470.986774 -28.305241 
L 470.092184 -28.466131 
L 469.197595 -28.62702 
L 468.303006 -28.78791 
L 467.408417 -28.9488 
L 466.513828 -29.109689 
L 465.619238 -29.270579 
L 464.724649 -29.431469 
L 463.83006 -29.592359 
L 462.935471 -29.753248 
L 462.040882 -29.914138 
L 461.146293 -30.075028 
L 460.251703 -30.235918 
L 459.357114 -30.396807 
L 458.462525 -30.557697 
L 457.567936 -30.718587 
L 456.673347 -30.879477 
L 455.778758 -31.040366 
L 454.884168 -31.201256 
L 453.989579 -31.362146 
L 453.09499 -31.523036 
L 452.200401 -31.683925 
L 451.305812 -31.844815 
L 450.411222 -32.005705 
L 449.516633 -32.166595 
L 448.622044 -32.327484 
L 447.727455 -32.488374 
L 446.832866 -32.649264 
L 445.938277 -32.810154 
L 445.043687 -32.971043 
L 444.149098 -33.131933 
L 443.254509 -33.292823 
L 442.35992 -33.453713 
L 441.465331 -33.614602 
L 440.570741 -33.775492 
L 439.676152 -33.936382 
L 438.781563 -34.097272 
L 437.886974 -34.258161 
L 436.992385 -34.419051 
L 436.097796 -34.579941 
L 435.203206 -34.740831 
L 434.308617 -34.90172 
L 433.414028 -35.06261 
L 432.519439 -35.2235 
L 431.62485 -35.384389 
L 430.730261 -35.545279 
L 429.835671 -35.706169 
L 428.941082 -35.867059 
L 428.046493 -36.027948 
L 427.151904 -36.188838 
L 426.257315 -36.349728 
L 425.362725 -36.510618 
L 424.468136 -36.671507 
L 423.573547 -36.832397 
L 422.678958 -36.993287 
L 421.784369 -37.154177 
L 420.88978 -37.315066 
L 419.99519 -37.475956 
L 419.100601 -37.636846 
L 418.206012 -37.797736 
L 417.311423 -37.958625 
L 416.416834 -38.119515 
L 415.522244 -38.280405 
L 414.627655 -38.441295 
L 413.733066 -38.602184 
L 412.838477 -38.763074 
L 411.943888 -38.923964 
L 411.049299 -39.084854 
L 410.154709 -39.245743 
L 409.26012 -39.406633 
L 408.365531 -39.567523 
L 407.470942 -39.728413 
L 406.576353 -39.889302 
L 405.681764 -40.050192 
L 404.787174 -40.211082 
L 403.892585 -40.371972 
L 402.997996 -40.532861 
L 402.103407 -40.693751 
L 401.208818 -40.854641 
L 400.314228 -41.01553 
L 399.419639 -41.17642 
L 398.52505 -41.33731 
L 397.630461 -41.4982 
L 396.735872 -41.659089 
L 395.841283 -41.819979 
L 394.946693 -41.980869 
L 394.052104 -42.141759 
L 393.157515 -42.302648 
L 392.262926 -42.463538 
L 391.368337 -42.624428 
L 390.473747 -42.785318 
L 389.579158 -42.946207 
L 388.684569 -43.107097 
L 387.78998 -43.267987 
L 386.895391 -43.428877 
L 386.000802 -43.589766 
L 385.106212 -43.750656 
L 384.211623 -43.911546 
L 383.317034 -44.072436 
L 382.422445 -44.233325 
L 381.527856 -44.394215 
L 380.633267 -44.555105 
L 379.738677 -44.715995 
L 378.844088 -44.876884 
L 377.949499 -45.037774 
L 377.05491 -45.198664 
L 376.160321 -45.359554 
L 375.265731 -45.520443 
L 374.371142 -45.681333 
L 373.476553 -45.842223 
L 372.581964 -46.003113 
L 371.687375 -46.164002 
L 370.792786 -46.324892 
L 369.898196 -46.485782 
L 369.003607 -46.646672 
L 368.109018 -46.807561 
L 367.214429 -46.968451 
L 366.31984 -47.129341 
L 365.425251 -47.29023 
L 364.530661 -47.45112 
L 363.636072 -47.61201 
L 362.741483 -47.7729 
L 361.846894 -47.933789 
L 360.952305 -48.094679 
L 360.057715 -48.255569 
L 359.163126 -48.416459 
L 358.268537 -48.577348 
L 357.373948 -48.738238 
L 356.479359 -48.899128 
L 355.58477 -49.060018 
L 354.69018 -49.220907 
L 353.795591 -49.381797 
L 352.901002 -49.542687 
L 352.006413 -49.703577 
L 351.111824 -49.864466 
L 350.217234 -50.025356 
L 349.322645 -50.186246 
L 348.428056 -50.347136 
L 347.533467 -50.508025 
L 346.638878 -50.668915 
L 345.744289 -50.829805 
L 344.849699 -50.990695 
L 343.95511 -51.151584 
L 343.060521 -51.312474 
L 342.165932 -51.473364 
L 341.271343 -51.634254 
L 340.376754 -51.795143 
L 339.482164 -51.956033 
L 338.587575 -52.116923 
L 337.692986 -52.277813 
L 336.798397 -52.438702 
L 335.903808 -52.599592 
L 335.009218 -52.760482 
L 334.114629 -52.921372 
L 333.22004 -53.082261 
L 332.325451 -53.243151 
L 331.430862 -53.404041 
L 330.536273 -53.56493 
L 329.641683 -53.72582 
L 328.747094 -53.88671 
L 327.852505 -54.0476 
L 326.957916 -54.208489 
L 326.063327 -54.369379 
L 325.168737 -54.530269 
L 324.274148 -54.691159 
L 323.379559 -54.852048 
L 322.48497 -55.012938 
L 321.590381 -55.173828 
L 320.695792 -55.334718 
L 319.801202 -55.495607 
L 318.906613 -55.656497 
L 318.012024 -55.817387 
L 317.117435 -55.978277 
L 316.222846 -56.139166 
L 315.328257 -56.300056 
L 314.433667 -56.460946 
L 313.539078 -56.621836 
L 312.644489 -56.782725 
L 311.7499 -56.943615 
L 310.855311 -57.104505 
L 309.960721 -57.265395 
L 309.066132 -57.426284 
L 308.171543 -57.587174 
L 307.276954 -57.748064 
L 306.382365 -57.908954 
L 305.487776 -58.069843 
L 304.593186 -58.230733 
L 303.698597 -58.391623 
L 302.804008 -58.552513 
L 301.909419 -58.713402 
L 301.01483 -58.874292 
L 300.12024 -59.035182 
L 299.225651 -59.196072 
L 298.331062 -59.356961 
L 297.436473 -59.517851 
L 296.541884 -59.678741 
L 295.647295 -59.83963 
L 294.752705 -60.00052 
L 293.858116 -60.16141 
L 292.963527 -60.3223 
L 292.068938 -60.483189 
L 291.174349 -60.644079 
L 290.27976 -60.804969 
L 289.38517 -60.965859 
L 288.490581 -61.126748 
L 287.595992 -61.287638 
L 286.701403 -61.448528 
L 285.806814 -61.609418 
L 284.912224 -61.770307 
L 284.017635 -61.931197 
L 283.123046 -62.092087 
L 282.228457 -62.252977 
L 281.333868 -62.413866 
L 280.439279 -62.574756 
L 279.544689 -62.735646 
L 278.6501 -62.896536 
L 277.755511 -63.057425 
L 276.860922 -63.218315 
L 275.966333 -63.379205 
L 275.071743 -63.540095 
L 274.177154 -63.700984 
L 273.282565 -63.861874 
L 272.387976 -64.022764 
L 271.493387 -64.183654 
L 270.598798 -64.344543 
L 269.704208 -64.505433 
L 268.809619 -64.666323 
L 267.91503 -64.827213 
L 267.020441 -64.988102 
L 266.125852 -65.148992 
L 265.231263 -65.309882 
L 264.336673 -65.470771 
L 263.442084 -65.631661 
L 262.547495 -65.792551 
L 261.652906 -65.953441 
L 260.758317 -66.11433 
L 259.863727 -66.27522 
L 258.969138 -66.43611 
L 258.074549 -66.597 
L 257.17996 -66.757889 
L 256.285371 -66.918779 
L 255.390782 -67.079669 
L 254.496192 -67.240559 
L 253.601603 -67.401448 
L 252.707014 -67.562338 
L 251.812425 -67.723228 
L 250.917836 -67.884118 
L 250.023246 -68.045007 
L 249.128657 -68.205897 
L 248.234068 -68.366787 
L 247.339479 -68.527677 
L 246.44489 -68.688566 
L 245.550301 -68.849456 
L 244.655711 -69.010346 
L 243.761122 -69.171236 
L 242.866533 -69.332125 
L 241.971944 -69.493015 
L 241.077355 -69.653905 
L 240.182766 -69.814795 
L 239.288176 -69.975684 
L 238.393587 -70.136574 
L 237.498998 -70.297464 
L 236.604409 -70.458354 
L 235.70982 -70.619243 
L 234.81523 -70.780133 
L 233.920641 -70.941023 
L 233.026052 -71.101913 
L 232.131463 -71.262802 
L 231.236874 -71.423692 
L 230.342285 -71.584582 
L 229.447695 -71.745471 
L 228.553106 -71.906361 
L 227.658517 -72.067251 
L 226.763928 -72.228141 
L 225.869339 -72.38903 
L 224.974749 -72.54992 
L 224.08016 -72.71081 
L 223.185571 -72.8717 
L 222.290982 -73.032589 
L 221.396393 -73.193479 
L 220.501804 -73.354369 
L 219.607214 -73.515259 
L 218.712625 -73.676148 
L 217.818036 -73.837038 
L 216.923447 -73.997928 
L 216.028858 -74.158818 
L 215.134269 -74.319707 
L 214.239679 -74.480597 
L 213.34509 -74.641487 
L 212.450501 -74.802377 
L 211.555912 -74.963266 
L 210.661323 -75.124156 
L 209.766733 -75.285046 
L 208.872144 -75.445936 
L 207.977555 -75.606825 
L 207.082966 -75.767715 
L 206.188377 -75.928605 
L 205.293788 -76.089495 
L 204.399198 -76.250384 
L 203.504609 -76.411274 
L 202.61002 -76.572164 
L 201.715431 -76.733054 
L 200.820842 -76.893943 
L 199.926253 -77.054833 
L 199.031663 -77.215723 
L 198.137074 -77.376613 
L 197.242485 -77.537502 
L 196.347896 -77.698392 
L 195.453307 -77.859282 
L 194.558717 -78.020171 
L 193.664128 -78.181061 
L 192.769539 -78.341951 
L 191.87495 -78.502841 
L 190.980361 -78.66373 
L 190.085772 -78.82462 
L 189.191182 -78.98551 
L 188.296593 -79.1464 
L 187.402004 -79.307289 
L 186.507415 -79.468179 
L 185.612826 -79.629069 
L 184.718236 -79.789959 
L 183.823647 -79.950848 
L 182.929058 -80.111738 
L 182.034469 -80.272628 
L 181.13988 -80.433518 
L 180.245291 -80.594407 
L 179.350701 -80.755297 
L 178.456112 -80.916187 
L 177.561523 -81.077077 
L 176.666934 -81.237966 
L 175.772345 -81.398856 
L 174.877756 -81.559746 
L 173.983166 -81.720636 
L 173.088577 -81.881525 
L 172.193988 -82.042415 
L 171.299399 -82.203305 
L 170.40481 -82.364195 
L 169.51022 -82.525084 
L 168.615631 -82.685974 
L 167.721042 -82.846864 
L 166.826453 -83.007754 
L 165.931864 -83.168643 
L 165.037275 -83.329533 
L 164.142685 -83.490423 
L 163.248096 -83.651313 
L 162.353507 -83.812202 
L 161.458918 -83.973092 
L 160.564329 -84.133982 
L 159.669739 -84.294871 
L 158.77515 -84.455761 
L 157.880561 -84.616651 
L 156.985972 -84.777541 
L 156.091383 -84.93843 
L 155.196794 -85.09932 
L 154.302204 -85.26021 
L 153.407615 -85.4211 
L 152.513026 -85.581989 
L 151.618437 -85.742879 
L 150.723848 -85.903769 
L 149.829259 -86.064659 
L 148.934669 -86.225548 
L 148.04008 -86.386438 
L 147.145491 -86.547328 
L 146.250902 -86.708218 
L 145.356313 -86.869107 
L 144.461723 -87.029997 
L 143.567134 -87.190887 
L 142.672545 -87.351777 
L 141.777956 -87.512666 
L 140.883367 -87.673556 
L 139.988778 -87.834446 
L 139.094188 -87.995336 
L 138.199599 -88.156225 
L 137.30501 -88.317115 
L 136.410421 -88.478005 
L 135.515832 -88.638895 
L 134.621242 -88.799784 
L 133.726653 -88.960674 
L 132.832064 -89.121564 
L 131.937475 -89.282454 
L 131.042886 -89.443343 
L 130.148297 -89.604233 
L 129.253707 -89.765123 
L 128.359118 -89.926012 
L 127.464529 -90.086902 
L 126.56994 -90.247792 
L 125.675351 -90.408682 
L 124.780762 -90.569571 
L 123.886172 -90.730461 
L 122.991583 -90.891351 
L 122.096994 -91.052241 
L 121.202405 -91.21313 
L 120.307816 -91.37402 
L 119.413226 -91.53491 
L 118.518637 -91.6958 
L 117.624048 -91.856689 
L 116.729459 -92.017579 
L 115.83487 -92.178469 
L 114.940281 -92.339359 
L 114.045691 -92.500248 
L 113.151102 -92.661138 
L 112.256513 -92.822028 
L 111.361924 -92.982918 
L 110.467335 -93.143807 
L 109.572745 -93.304697 
L 108.678156 -93.465587 
L 107.783567 -93.626477 
L 106.888978 -93.787366 
L 105.994389 -93.948256 
L 105.0998 -94.109146 
L 104.20521 -94.270036 
L 103.310621 -94.430925 
L 102.416032 -94.591815 
L 101.521443 -94.752705 
L 100.626854 -94.913595 
L 99.732265 -95.074484 
L 98.837675 -95.235374 
L 97.943086 -95.396264 
L 97.048497 -95.557154 
L 96.153908 -95.718043 
L 95.259319 -95.878933 
L 94.364729 -96.039823 
L 93.47014 -96.200712 
L 92.575551 -96.361602 
L 91.680962 -96.522492 
L 90.786373 -96.683382 
L 89.891784 -96.844271 
L 88.997194 -97.005161 
L 88.102605 -97.166051 
L 87.208016 -97.326941 
L 86.313427 -97.48783 
L 85.418838 -97.64872 
L 84.524248 -97.80961 
L 83.629659 -97.9705 
L 82.73507 -98.131389 
L 81.840481 -98.292279 
L 80.945892 -98.453169 
L 80.051303 -98.614059 
L 79.156713 -98.774948 
L 78.262124 -98.935838 
L 77.367535 -99.096728 
L 76.472946 -99.257618 
L 75.578357 -99.418507 
L 74.683768 -99.579397 
L 73.789178 -99.740287 
L 72.894589 -99.901177 
L 72 -100.062066 
z
" style="stroke: #ff0000; stroke-opacity: 0.15"/>
    </defs>
    <g clip-path="url(#p7b2f0d2f66)">
     <use xlink:href="#m392b124f14" x="0" y="360" style="fill: #ff0000; fill-opacity: 0.15; stroke: #ff0000; stroke-opacity: 0.15"/>
    </g>
   </g>
   <g id="matplotlib.axis_1">
    <g id="xtick_1">
     <g id="line2d_1">
      <path d="M 72 320.4 
L 72 43.2 
" clip-path="url(#p7b2f0d2f66)" style="fill: none; stroke: #b0b0b0; stroke-width: 0.8; stroke-linecap: square"/>
     </g>
     <g id="line2d_2">
      <defs>
       <path id="ma7dd0c6a88" d="M 0 0 
L 0 3.5 
" style="stroke: #000000; stroke-width: 0.8"/>
      </defs>
      <g>
       <use xlink:href="#ma7dd0c6a88" x="72" y="320.4" style="stroke: #000000; stroke-width: 0.8"/>
      </g>
     </g>
     <g id="text_1">
      <!-- 0 -->
      <g transform="translate(68.81875 334.997656) scale(0.1 -0.1)">
       <defs>
        <path id="DejaVuSans-13" d="M 2034 4250 
Q 1547 4250 1301 3770 
Q 1056 3291 1056 2328 
Q 1056 1369 1301 889 
Q 1547 409 2034 409 
Q 2525 409 2770 889 
Q 3016 1369 3016 2328 
Q 3016 3291 2770 3770 
Q 2525 4250 2034 4250 
z
M 2034 4750 
Q 2819 4750 3233 4129 
Q 3647 3509 3647 2328 
Q 3647 1150 3233 529 
Q 2819 -91 2034 -91 
Q 1250 -91 836 529 
Q 422 1150 422 2328 
Q 422 3509 836 4129 
Q 1250 4750 2034 4750 
z
" transform="scale(0.015625)"/>
       </defs>
       <use xlink:href="#DejaVuSans-13"/>
      </g>
     </g>
    </g>
    <g id="xtick_2">
     <g id="line2d_3">
      <path d="M 161.28 320.4 
L 161.28 43.2 
" clip-path="url(#p7b2f0d2f66)" style="fill: none; stroke: #b0b0b0; stroke-width: 0.8; stroke-linecap: square"/>
     </g>
     <g id="line2d_4">
      <g>
       <use xlink:href="#ma7dd0c6a88" x="161.28" y="320.4" style="stroke: #000000; stroke-width: 0.8"/>
      </g>
     </g>
     <g id="text_2">
      <!-- 200 -->
      <g transform="translate(151.73625 334.997656) scale(0.1 -0.1)">
       <defs>
        <path id="DejaVuSans-15" d="M 1228 531 
L 3431 531 
L 3431 0 
L 469 0 
L 469 531 
Q 828 903 1448 1529 
Q 2069 2156 2228 2338 
Q 2531 2678 2651 2914 
Q 2772 3150 2772 3378 
Q 2772 3750 2511 3984 
Q 2250 4219 1831 4219 
Q 1534 4219 1204 4116 
Q 875 4013 500 3803 
L 500 4441 
Q 881 4594 1212 4672 
Q 1544 4750 1819 4750 
Q 2544 4750 2975 4387 
Q 3406 4025 3406 3419 
Q 3406 3131 3298 2873 
Q 3191 2616 2906 2266 
Q 2828 2175 2409 1742 
Q 1991 1309 1228 531 
z
" transform="scale(0.015625)"/>
       </defs>
       <use xlink:href="#DejaVuSans-15"/>
       <use xlink:href="#DejaVuSans-13" transform="translate(63.625 0)"/>
       <use xlink:href="#DejaVuSans-13" transform="translate(127.25 0)"/>
      </g>
     </g>
    </g>
    <g id="xtick_3">
     <g id="line2d_5">
      <path d="M 250.56 320.4 
L 250.56 43.2 
" clip-path="url(#p7b2f0d2f66)" style="fill: none; stroke: #b0b0b0; stroke-width: 0.8; stroke-linecap: square"/>
     </g>
     <g id="line2d_6">
      <g>
       <use xlink:href="#ma7dd0c6a88" x="250.56" y="320.4" style="stroke: #000000; stroke-width: 0.8"/>
      </g>
     </g>
     <g id="text_3">
      <!-- 400 -->
      <g transform="translate(241.01625 334.997656) scale(0.1 -0.1)">
       <defs>
        <path id="DejaVuSans-17" d="M 2419 4116 
L 825 1625 
L 2419 1625 
L 2419 4116 
z
M 2253 4666 
L 3047 4666 
L 3047 1625 
L 3713 1625 
L 3713 1100 
L 3047 1100 
L 3047 0 
L 2419 0 
L 2419 1100 
L 313 1100 
L 313 1709 
L 2253 4666 
z
" transform="scale(0.015625)"/>
       </defs>
       <use xlink:href="#DejaVuSans-17"/>
       <use xlink:href="#DejaVuSans-13" transform="translate(63.625 0)"/>
       <use xlink:href="#DejaVuSans-13" transform="translate(127.25 0)"/>
      </g>
     </g>
    </g>
    <g id="xtick_4">
     <g id="line2d_7">
      <path d="M 339.84 320.4 
L 339.84 43.2 
" clip-path="url(#p7b2f0d2f66)" style="fill: none; stroke: #b0b0b0; stroke-width: 0.8; stroke-linecap: square"/>
     </g>
     <g id="line2d_8">
      <g>
       <use xlink:href="#ma7dd0c6a88" x="339.84" y="320.4" style="stroke: #000000; stroke-width: 0.8"/>
      </g>
     </g>
     <g id="text_4">
      <!-- 600 -->
      <g transform="translate(330.29625 334.997656) scale(0.1 -0.1)">
       <defs>
        <path id="DejaVuSans-19" d="M 2113 2584 
Q 1688 2584 1439 2293 
Q 1191 2003 1191 1497 
Q 1191 994 1439 701 
Q 1688 409 2113 409 
Q 2538 409 2786 701 
Q 3034 994 3034 1497 
Q 3034 2003 2786 2293 
Q 2538 2584 2113 2584 
z
M 3366 4563 
L 3366 3988 
Q 3128 4100 2886 4159 
Q 2644 4219 2406 4219 
Q 1781 4219 1451 3797 
Q 1122 3375 1075 2522 
Q 1259 2794 1537 2939 
Q 1816 3084 2150 3084 
Q 2853 3084 3261 2657 
Q 3669 2231 3669 1497 
Q 3669 778 3244 343 
Q 2819 -91 2113 -91 
Q 1303 -91 875 529 
Q 447 1150 447 2328 
Q 447 3434 972 4092 
Q 1497 4750 2381 4750 
Q 2619 4750 2861 4703 
Q 3103 4656 3366 4563 
z
" transform="scale(0.015625)"/>
       </defs>
       <use xlink:href="#DejaVuSans-19"/>
       <use xlink:href="#DejaVuSans-13" transform="translate(63.625 0)"/>
       <use xlink:href="#DejaVuSans-13" transform="translate(127.25 0)"/>
      </g>
     </g>
    </g>
    <g id="xtick_5">
     <g id="line2d_9">
      <path d="M 429.12 320.4 
L 429.12 43.2 
" clip-path="url(#p7b2f0d2f66)" style="fill: none; stroke: #b0b0b0; stroke-width: 0.8; stroke-linecap: square"/>
     </g>
     <g id="line2d_10">
      <g>
       <use xlink:href="#ma7dd0c6a88" x="429.12" y="320.4" style="stroke: #000000; stroke-width: 0.8"/>
      </g>
     </g>
     <g id="text_5">
      <!-- 800 -->
      <g transform="translate(419.57625 334.997656) scale(0.1 -0.1)">
       <defs>
        <path id="DejaVuSans-1b" d="M 2034 2216 
Q 1584 2216 1326 1975 
Q 1069 1734 1069 1313 
Q 1069 891 1326 650 
Q 1584 409 2034 409 
Q 2484 409 2743 651 
Q 3003 894 3003 1313 
Q 3003 1734 2745 1975 
Q 2488 2216 2034 2216 
z
M 1403 2484 
Q 997 2584 770 2862 
Q 544 3141 544 3541 
Q 544 4100 942 4425 
Q 1341 4750 2034 4750 
Q 2731 4750 3128 4425 
Q 3525 4100 3525 3541 
Q 3525 3141 3298 2862 
Q 3072 2584 2669 2484 
Q 3125 2378 3379 2068 
Q 3634 1759 3634 1313 
Q 3634 634 3220 271 
Q 2806 -91 2034 -91 
Q 1263 -91 848 271 
Q 434 634 434 1313 
Q 434 1759 690 2068 
Q 947 2378 1403 2484 
z
M 1172 3481 
Q 1172 3119 1398 2916 
Q 1625 2713 2034 2713 
Q 2441 2713 2670 2916 
Q 2900 3119 2900 3481 
Q 2900 3844 2670 4047 
Q 2441 4250 2034 4250 
Q 1625 4250 1398 4047 
Q 1172 3844 1172 3481 
z
" transform="scale(0.015625)"/>
       </defs>
       <use xlink:href="#DejaVuSans-1b"/>
       <use xlink:href="#DejaVuSans-13" transform="translate(63.625 0)"/>
       <use xlink:href="#DejaVuSans-13" transform="translate(127.25 0)"/>
      </g>
     </g>
    </g>
    <g id="xtick_6">
     <g id="line2d_11">
      <path d="M 518.4 320.4 
L 518.4 43.2 
" clip-path="url(#p7b2f0d2f66)" style="fill: none; stroke: #b0b0b0; stroke-width: 0.8; stroke-linecap: square"/>
     </g>
     <g id="line2d_12">
      <g>
       <use xlink:href="#ma7dd0c6a88" x="518.4" y="320.4" style="stroke: #000000; stroke-width: 0.8"/>
      </g>
     </g>
     <g id="text_6">
      <!-- 1000 -->
      <g transform="translate(505.675 334.997656) scale(0.1 -0.1)">
       <defs>
        <path id="DejaVuSans-14" d="M 794 531 
L 1825 531 
L 1825 4091 
L 703 3866 
L 703 4441 
L 1819 4666 
L 2450 4666 
L 2450 531 
L 3481 531 
L 3481 0 
L 794 0 
L 794 531 
z
" transform="scale(0.015625)"/>
       </defs>
       <use xlink:href="#DejaVuSans-14"/>
       <use xlink:href="#DejaVuSans-13" transform="translate(63.625 0)"/>
       <use xlink:href="#DejaVuSans-13" transform="translate(127.25 0)"/>
       <use xlink:href="#DejaVuSans-13" transform="translate(190.875 0)"/>
      </g>
     </g>
    </g>
    <g id="text_7">
     <!-- Temperature (°C) -->
     <g transform="translate(252.045312 348.997656) scale(0.1 -0.1)">
      <defs>
       <path id="DejaVuSans-37" d="M -19 4666 
L 3928 4666 
L 3928 4134 
L 2272 4134 
L 2272 0 
L 1638 0 
L 1638 4134 
L -19 4134 
L -19 4666 
z
" transform="scale(0.015625)"/>
       <path id="DejaVuSans-48" d="M 3597 1894 
L 3597 1613 
L 953 1613 
Q 991 1019 1311 708 
Q 1631 397 2203 397 
Q 2534 397 2845 478 
Q 3156 559 3463 722 
L 3463 178 
Q 3153 47 2828 -22 
Q 2503 -91 2169 -91 
Q 1331 -91 842 396 
Q 353 884 353 1716 
Q 353 2575 817 3079 
Q 1281 3584 2069 3584 
Q 2775 3584 3186 3129 
Q 3597 2675 3597 1894 
z
M 3022 2063 
Q 3016 2534 2758 2815 
Q 2500 3097 2075 3097 
Q 1594 3097 1305 2825 
Q 1016 2553 972 2059 
L 3022 2063 
z
" transform="scale(0.015625)"/>
       <path id="DejaVuSans-50" d="M 3328 2828 
Q 3544 3216 3844 3400 
Q 4144 3584 4550 3584 
Q 5097 3584 5394 3201 
Q 5691 2819 5691 2113 
L 5691 0 
L 5113 0 
L 5113 2094 
Q 5113 2597 4934 2840 
Q 4756 3084 4391 3084 
Q 3944 3084 3684 2787 
Q 3425 2491 3425 1978 
L 3425 0 
L 2847 0 
L 2847 2094 
Q 2847 2600 2669 2842 
Q 2491 3084 2119 3084 
Q 1678 3084 1418 2786 
Q 1159 2488 1159 1978 
L 1159 0 
L 581 0 
L 581 3500 
L 1159 3500 
L 1159 2956 
Q 1356 3278 1631 3431 
Q 1906 3584 2284 3584 
Q 2666 3584 2933 3390 
Q 3200 3197 3328 2828 
z
" transform="scale(0.015625)"/>
       <path id="DejaVuSans-53" d="M 1159 525 
L 1159 -1331 
L 581 -1331 
L 581 3500 
L 1159 3500 
L 1159 2969 
Q 1341 3281 1617 3432 
Q 1894 3584 2278 3584 
Q 2916 3584 3314 3078 
Q 3713 2572 3713 1747 
Q 3713 922 3314 415 
Q 2916 -91 2278 -91 
Q 1894 -91 1617 61 
Q 1341 213 1159 525 
z
M 3116 1747 
Q 3116 2381 2855 2742 
Q 2594 3103 2138 3103 
Q 1681 3103 1420 2742 
Q 1159 2381 1159 1747 
Q 1159 1113 1420 752 
Q 1681 391 2138 391 
Q 2594 391 2855 752 
Q 3116 1113 3116 1747 
z
" transform="scale(0.015625)"/>
       <path id="DejaVuSans-55" d="M 2631 2963 
Q 2534 3019 2420 3045 
Q 2306 3072 2169 3072 
Q 1681 3072 1420 2755 
Q 1159 2438 1159 1844 
L 1159 0 
L 581 0 
L 581 3500 
L 1159 3500 
L 1159 2956 
Q 1341 3275 1631 3429 
Q 1922 3584 2338 3584 
Q 2397 3584 2469 3576 
Q 2541 3569 2628 3553 
L 2631 2963 
z
" transform="scale(0.015625)"/>
       <path id="DejaVuSans-44" d="M 2194 1759 
Q 1497 1759 1228 1600 
Q 959 1441 959 1056 
Q 959 750 1161 570 
Q 1363 391 1709 391 
Q 2188 391 2477 730 
Q 2766 1069 2766 1631 
L 2766 1759 
L 2194 1759 
z
M 3341 1997 
L 3341 0 
L 2766 0 
L 2766 531 
Q 2569 213 2275 61 
Q 1981 -91 1556 -91 
Q 1019 -91 701 211 
Q 384 513 384 1019 
Q 384 1609 779 1909 
Q 1175 2209 1959 2209 
L 2766 2209 
L 2766 2266 
Q 2766 2663 2505 2880 
Q 2244 3097 1772 3097 
Q 1472 3097 1187 3025 
Q 903 2953 641 2809 
L 641 3341 
Q 956 3463 1253 3523 
Q 1550 3584 1831 3584 
Q 2591 3584 2966 3190 
Q 3341 2797 3341 1997 
z
" transform="scale(0.015625)"/>
       <path id="DejaVuSans-57" d="M 1172 4494 
L 1172 3500 
L 2356 3500 
L 2356 3053 
L 1172 3053 
L 1172 1153 
Q 1172 725 1289 603 
Q 1406 481 1766 481 
L 2356 481 
L 2356 0 
L 1766 0 
Q 1100 0 847 248 
Q 594 497 594 1153 
L 594 3053 
L 172 3053 
L 172 3500 
L 594 3500 
L 594 4494 
L 1172 4494 
z
" transform="scale(0.015625)"/>
       <path id="DejaVuSans-58" d="M 544 1381 
L 544 3500 
L 1119 3500 
L 1119 1403 
Q 1119 906 1312 657 
Q 1506 409 1894 409 
Q 2359 409 2629 706 
Q 2900 1003 2900 1516 
L 2900 3500 
L 3475 3500 
L 3475 0 
L 2900 0 
L 2900 538 
Q 2691 219 2414 64 
Q 2138 -91 1772 -91 
Q 1169 -91 856 284 
Q 544 659 544 1381 
z
M 1991 3584 
L 1991 3584 
z
" transform="scale(0.015625)"/>
       <path id="DejaVuSans-3" transform="scale(0.015625)"/>
       <path id="DejaVuSans-b" d="M 1984 4856 
Q 1566 4138 1362 3434 
Q 1159 2731 1159 2009 
Q 1159 1288 1364 580 
Q 1569 -128 1984 -844 
L 1484 -844 
Q 1016 -109 783 600 
Q 550 1309 550 2009 
Q 550 2706 781 3412 
Q 1013 4119 1484 4856 
L 1984 4856 
z
" transform="scale(0.015625)"/>
       <path id="DejaVuSans-72" d="M 1600 4347 
Q 1350 4347 1178 4173 
Q 1006 4000 1006 3750 
Q 1006 3503 1178 3333 
Q 1350 3163 1600 3163 
Q 1850 3163 2022 3333 
Q 2194 3503 2194 3750 
Q 2194 3997 2020 4172 
Q 1847 4347 1600 4347 
z
M 1600 4750 
Q 1800 4750 1984 4673 
Q 2169 4597 2303 4453 
Q 2447 4313 2519 4134 
Q 2591 3956 2591 3750 
Q 2591 3338 2302 3052 
Q 2013 2766 1594 2766 
Q 1172 2766 890 3047 
Q 609 3328 609 3750 
Q 609 4169 896 4459 
Q 1184 4750 1600 4750 
z
" transform="scale(0.015625)"/>
       <path id="DejaVuSans-26" d="M 4122 4306 
L 4122 3641 
Q 3803 3938 3442 4084 
Q 3081 4231 2675 4231 
Q 1875 4231 1450 3742 
Q 1025 3253 1025 2328 
Q 1025 1406 1450 917 
Q 1875 428 2675 428 
Q 3081 428 3442 575 
Q 3803 722 4122 1019 
L 4122 359 
Q 3791 134 3420 21 
Q 3050 -91 2638 -91 
Q 1578 -91 968 557 
Q 359 1206 359 2328 
Q 359 3453 968 4101 
Q 1578 4750 2638 4750 
Q 3056 4750 3426 4639 
Q 3797 4528 4122 4306 
z
" transform="scale(0.015625)"/>
       <path id="DejaVuSans-c" d="M 513 4856 
L 1013 4856 
Q 1481 4119 1714 3412 
Q 1947 2706 1947 2009 
Q 1947 1309 1714 600 
Q 1481 -109 1013 -844 
L 513 -844 
Q 928 -128 1133 580 
Q 1338 1288 1338 2009 
Q 1338 2731 1133 3434 
Q 928 4138 513 4856 
z
" transform="scale(0.015625)"/>
      </defs>
      <use xlink:href="#DejaVuSans-37"/>
      <use xlink:href="#DejaVuSans-48" transform="translate(44.09375 0)"/>
      <use xlink:href="#DejaVuSans-50" transform="translate(105.625 0)"/>
      <use xlink:href="#DejaVuSans-53" transform="translate(203.03125 0)"/>
      <use xlink:href="#DejaVuSans-48" transform="translate(266.515625 0)"/>
      <use xlink:href="#DejaVuSans-55" transform="translate(328.046875 0)"/>
      <use xlink:href="#DejaVuSans-44" transform="translate(369.15625 0)"/>
      <use xlink:href="#DejaVuSans-57" transform="translate(430.4375 0)"/>
      <use xlink:href="#DejaVuSans-58" transform="translate(469.640625 0)"/>
      <use xlink:href="#DejaVuSans-55" transform="translate(533.015625 0)"/>
      <use xlink:href="#DejaVuSans-48" transform="translate(571.921875 0)"/>
      <use xlink:href="#DejaVuSans-3" transform="translate(633.453125 0)"/>
      <use xlink:href="#DejaVuSans-b" transform="translate(665.234375 0)"/>
      <use xlink:href="#DejaVuSans-72" transform="translate(704.25 0)"/>
      <use xlink:href="#DejaVuSans-26" transform="translate(754.25 0)"/>
      <use xlink:href="#DejaVuSans-c" transform="translate(824.078125 0)"/>
     </g>
    </g>
   </g>
   <g id="matplotlib.axis_2">
    <g id="ytick_1">
     <g id="line2d_13">
      <path d="M 72 305 
L 518.4 305 
" clip-path="url(#p7b2f0d2f66)" style="fill: none; stroke: #b0b0b0; stroke-width: 0.8; stroke-linecap: square"/>
     </g>
     <g id="line2d_14">
      <defs>
       <path id="m34a22b9233" d="M 0 0 
L -3.5 0 
" style="stroke: #000000; stroke-width: 0.8"/>
      </defs>
      <g>
       <use xlink:href="#m34a22b9233" x="72" y="305" style="stroke: #000000; stroke-width: 0.8"/>
      </g>
     </g>
     <g id="text_8">
      <!-- −0.2 -->
      <g transform="translate(40.717187 308.798828) scale(0.1 -0.1)">
       <defs>
        <path id="DejaVuSans-c9c" d="M 678 2272 
L 4684 2272 
L 4684 1741 
L 678 1741 
L 678 2272 
z
" transform="scale(0.015625)"/>
        <path id="DejaVuSans-11" d="M 684 794 
L 1344 794 
L 1344 0 
L 684 0 
L 684 794 
z
" transform="scale(0.015625)"/>
       </defs>
       <use xlink:href="#DejaVuSans-c9c"/>
       <use xlink:href="#DejaVuSans-13" transform="translate(83.796875 0)"/>
       <use xlink:href="#DejaVuSans-11" transform="translate(147.421875 0)"/>
       <use xlink:href="#DejaVuSans-15" transform="translate(179.203125 0)"/>
      </g>
     </g>
    </g>
    <g id="ytick_2">
     <g id="line2d_15">
      <path d="M 72 274.2 
L 518.4 274.2 
" clip-path="url(#p7b2f0d2f66)" style="fill: none; stroke: #b0b0b0; stroke-width: 0.8; stroke-linecap: square"/>
     </g>
     <g id="line2d_16">
      <g>
       <use xlink:href="#m34a22b9233" x="72" y="274.2" style="stroke: #000000; stroke-width: 0.8"/>
      </g>
     </g>
     <g id="text_9">
      <!-- 0.0 -->
      <g transform="translate(49.096875 277.998828) scale(0.1 -0.1)">
       <use xlink:href="#DejaVuSans-13"/>
       <use xlink:href="#DejaVuSans-11" transform="translate(63.625 0)"/>
       <use xlink:href="#DejaVuSans-13" transform="translate(95.40625 0)"/>
      </g>
     </g>
    </g>
    <g id="ytick_3">
     <g id="line2d_17">
      <path d="M 72 243.4 
L 518.4 243.4 
" clip-path="url(#p7b2f0d2f66)" style="fill: none; stroke: #b0b0b0; stroke-width: 0.8; stroke-linecap: square"/>
     </g>
     <g id="line2d_18">
      <g>
       <use xlink:href="#m34a22b9233" x="72" y="243.4" style="stroke: #000000; stroke-width: 0.8"/>
      </g>
     </g>
     <g id="text_10">
      <!-- 0.2 -->
      <g transform="translate(49.096875 247.198828) scale(0.1 -0.1)">
       <use xlink:href="#DejaVuSans-13"/>
       <use xlink:href="#DejaVuSans-11" transform="translate(63.625 0)"/>
       <use xlink:href="#DejaVuSans-15" transform="translate(95.40625 0)"/>
      </g>
     </g>
    </g>
    <g id="ytick_4">
     <g id="line2d_19">
      <path d="M 72 212.6 
L 518.4 212.6 
" clip-path="url(#p7b2f0d2f66)" style="fill: none; stroke: #b0b0b0; stroke-width: 0.8; stroke-linecap: square"/>
     </g>
     <g id="line2d_20">
      <g>
       <use xlink:href="#m34a22b9233" x="72" y="212.6" style="stroke: #000000; stroke-width: 0.8"/>
      </g>
     </g>
     <g id="text_11">
      <!-- 0.4 -->
      <g transform="translate(49.096875 216.398828) scale(0.1 -0.1)">
       <use xlink:href="#DejaVuSans-13"/>
       <use xlink:href="#DejaVuSans-11" transform="translate(63.625 0)"/>
       <use xlink:href="#DejaVuSans-17" transform="translate(95.40625 0)"/>
      </g>
     </g>
    </g>
    <g id="ytick_5">
     <g id="line2d_21">
      <path d="M 72 181.8 
L 518.4 181.8 
" clip-path="url(#p7b2f0d2f66)" style="fill: none; stroke: #b0b0b0; stroke-width: 0.8; stroke-linecap: square"/>
     </g>
     <g id="line2d_22">
      <g>
       <use xlink:href="#m34a22b9233" x="72" y="181.8" style="stroke: #000000; stroke-width: 0.8"/>
      </g>
     </g>
     <g id="text_12">
      <!-- 0.6 -->
      <g transform="translate(49.096875 185.598828) scale(0.1 -0.1)">
       <use xlink:href="#DejaVuSans-13"/>
       <use xlink:href="#DejaVuSans-11" transform="translate(63.625 0)"/>
       <use xlink:href="#DejaVuSans-19" transform="translate(95.40625 0)"/>
      </g>
     </g>
    </g>
    <g id="ytick_6">
     <g id="line2d_23">
      <path d="M 72 151 
L 518.4 151 
" clip-path="url(#p7b2f0d2f66)" style="fill: none; stroke: #b0b0b0; stroke-width: 0.8; stroke-linecap: square"/>
     </g>
     <g id="line2d_24">
      <g>
       <use xlink:href="#m34a22b9233" x="72" y="151" style="stroke: #000000; stroke-width: 0.8"/>
      </g>
     </g>
     <g id="text_13">
      <!-- 0.8 -->
      <g transform="translate(49.096875 154.798828) scale(0.1 -0.1)">
       <use xlink:href="#DejaVuSans-13"/>
       <use xlink:href="#DejaVuSans-11" transform="translate(63.625 0)"/>
       <use xlink:href="#DejaVuSans-1b" transform="translate(95.40625 0)"/>
      </g>
     </g>
    </g>
    <g id="ytick_7">
     <g id="line2d_25">
      <path d="M 72 120.2 
L 518.4 120.2 
" clip-path="url(#p7b2f0d2f66)" style="fill: none; stroke: #b0b0b0; stroke-width: 0.8; stroke-linecap: square"/>
     </g>
     <g id="line2d_26">
      <g>
       <use xlink:href="#m34a22b9233" x="72" y="120.2" style="stroke: #000000; stroke-width: 0.8"/>
      </g>
     </g>
     <g id="text_14">
      <!-- 1.0 -->
      <g transform="translate(49.096875 123.998828) scale(0.1 -0.1)">
       <use xlink:href="#DejaVuSans-14"/>
       <use xlink:href="#DejaVuSans-11" transform="translate(63.625 0)"/>
       <use xlink:href="#DejaVuSans-13" transform="translate(95.40625 0)"/>
      </g>
     </g>
    </g>
    <g id="ytick_8">
     <g id="line2d_27">
      <path d="M 72 89.4 
L 518.4 89.4 
" clip-path="url(#p7b2f0d2f66)" style="fill: none; stroke: #b0b0b0; stroke-width: 0.8; stroke-linecap: square"/>
     </g>
     <g id="line2d_28">
      <g>
       <use xlink:href="#m34a22b9233" x="72" y="89.4" style="stroke: #000000; stroke-width: 0.8"/>
      </g>
     </g>
     <g id="text_15">
      <!-- 1.2 -->
      <g transform="translate(49.096875 93.198828) scale(0.1 -0.1)">
       <use xlink:href="#DejaVuSans-14"/>
       <use xlink:href="#DejaVuSans-11" transform="translate(63.625 0)"/>
       <use xlink:href="#DejaVuSans-15" transform="translate(95.40625 0)"/>
      </g>
     </g>
    </g>
    <g id="ytick_9">
     <g id="line2d_29">
      <path d="M 72 58.6 
L 518.4 58.6 
" clip-path="url(#p7b2f0d2f66)" style="fill: none; stroke: #b0b0b0; stroke-width: 0.8; stroke-linecap: square"/>
     </g>
     <g id="line2d_30">
      <g>
       <use xlink:href="#m34a22b9233" x="72" y="58.6" style="stroke: #000000; stroke-width: 0.8"/>
      </g>
     </g>
     <g id="text_16">
      <!-- 1.4 -->
      <g transform="translate(49.096875 62.398828) scale(0.1 -0.1)">
       <use xlink:href="#DejaVuSans-14"/>
       <use xlink:href="#DejaVuSans-11" transform="translate(63.625 0)"/>
       <use xlink:href="#DejaVuSans-17" transform="translate(95.40625 0)"/>
      </g>
     </g>
    </g>
    <g id="text_17">
     <!-- Electrode potential $\Phi$ (V) -->
     <g transform="translate(34.314844 243.7) rotate(-90) scale(0.1 -0.1)">
      <defs>
       <path id="DejaVuSans-28" d="M 628 4666 
L 3578 4666 
L 3578 4134 
L 1259 4134 
L 1259 2753 
L 3481 2753 
L 3481 2222 
L 1259 2222 
L 1259 531 
L 3634 531 
L 3634 0 
L 628 0 
L 628 4666 
z
" transform="scale(0.015625)"/>
       <path id="DejaVuSans-4f" d="M 603 4863 
L 1178 4863 
L 1178 0 
L 603 0 
L 603 4863 
z
" transform="scale(0.015625)"/>
       <path id="DejaVuSans-46" d="M 3122 3366 
L 3122 2828 
Q 2878 2963 2633 3030 
Q 2388 3097 2138 3097 
Q 1578 3097 1268 2742 
Q 959 2388 959 1747 
Q 959 1106 1268 751 
Q 1578 397 2138 397 
Q 2388 397 2633 464 
Q 2878 531 3122 666 
L 3122 134 
Q 2881 22 2623 -34 
Q 2366 -91 2075 -91 
Q 1284 -91 818 406 
Q 353 903 353 1747 
Q 353 2603 823 3093 
Q 1294 3584 2113 3584 
Q 2378 3584 2631 3529 
Q 2884 3475 3122 3366 
z
" transform="scale(0.015625)"/>
       <path id="DejaVuSans-52" d="M 1959 3097 
Q 1497 3097 1228 2736 
Q 959 2375 959 1747 
Q 959 1119 1226 758 
Q 1494 397 1959 397 
Q 2419 397 2687 759 
Q 2956 1122 2956 1747 
Q 2956 2369 2687 2733 
Q 2419 3097 1959 3097 
z
M 1959 3584 
Q 2709 3584 3137 3096 
Q 3566 2609 3566 1747 
Q 3566 888 3137 398 
Q 2709 -91 1959 -91 
Q 1206 -91 779 398 
Q 353 888 353 1747 
Q 353 2609 779 3096 
Q 1206 3584 1959 3584 
z
" transform="scale(0.015625)"/>
       <path id="DejaVuSans-47" d="M 2906 2969 
L 2906 4863 
L 3481 4863 
L 3481 0 
L 2906 0 
L 2906 525 
Q 2725 213 2448 61 
Q 2172 -91 1784 -91 
Q 1150 -91 751 415 
Q 353 922 353 1747 
Q 353 2572 751 3078 
Q 1150 3584 1784 3584 
Q 2172 3584 2448 3432 
Q 2725 3281 2906 2969 
z
M 947 1747 
Q 947 1113 1208 752 
Q 1469 391 1925 391 
Q 2381 391 2643 752 
Q 2906 1113 2906 1747 
Q 2906 2381 2643 2742 
Q 2381 3103 1925 3103 
Q 1469 3103 1208 2742 
Q 947 2381 947 1747 
z
" transform="scale(0.015625)"/>
       <path id="DejaVuSans-51" d="M 3513 2113 
L 3513 0 
L 2938 0 
L 2938 2094 
Q 2938 2591 2744 2837 
Q 2550 3084 2163 3084 
Q 1697 3084 1428 2787 
Q 1159 2491 1159 1978 
L 1159 0 
L 581 0 
L 581 3500 
L 1159 3500 
L 1159 2956 
Q 1366 3272 1645 3428 
Q 1925 3584 2291 3584 
Q 2894 3584 3203 3211 
Q 3513 2838 3513 2113 
z
" transform="scale(0.015625)"/>
       <path id="DejaVuSans-4c" d="M 603 3500 
L 1178 3500 
L 1178 0 
L 603 0 
L 603 3500 
z
M 603 4863 
L 1178 4863 
L 1178 4134 
L 603 4134 
L 603 4863 
z
" transform="scale(0.015625)"/>
       <path id="DejaVuSans-33a" d="M 2206 3644 
Q 1738 3578 1431 3306 
Q 1025 2947 1025 2328 
Q 1025 1713 1431 1353 
Q 1738 1081 2206 1016 
L 2206 3644 
z
M 2838 1016 
Q 3306 1081 3613 1353 
Q 4013 1713 4013 2328 
Q 4013 2947 3613 3306 
Q 3306 3578 2838 3644 
L 2838 1016 
z
M 2206 494 
Q 1444 563 950 981 
Q 359 1481 359 2328 
Q 359 3175 950 3678 
Q 1441 4100 2206 4169 
L 2206 4666 
L 2838 4666 
L 2838 4169 
Q 3600 4097 4091 3678 
Q 4678 3175 4678 2328 
Q 4678 1484 4091 981 
Q 3600 563 2838 491 
L 2838 0 
L 2206 0 
L 2206 494 
z
" transform="scale(0.015625)"/>
       <path id="DejaVuSans-39" d="M 1831 0 
L 50 4666 
L 709 4666 
L 2188 738 
L 3669 4666 
L 4325 4666 
L 2547 0 
L 1831 0 
z
" transform="scale(0.015625)"/>
      </defs>
      <use xlink:href="#DejaVuSans-28" transform="translate(0 0.015625)"/>
      <use xlink:href="#DejaVuSans-4f" transform="translate(63.183594 0.015625)"/>
      <use xlink:href="#DejaVuSans-48" transform="translate(90.966797 0.015625)"/>
      <use xlink:href="#DejaVuSans-46" transform="translate(152.490234 0.015625)"/>
      <use xlink:href="#DejaVuSans-57" transform="translate(207.470703 0.015625)"/>
      <use xlink:href="#DejaVuSans-55" transform="translate(246.679688 0.015625)"/>
      <use xlink:href="#DejaVuSans-52" transform="translate(285.792969 0.015625)"/>
      <use xlink:href="#DejaVuSans-47" transform="translate(346.974609 0.015625)"/>
      <use xlink:href="#DejaVuSans-48" transform="translate(410.451172 0.015625)"/>
      <use xlink:href="#DejaVuSans-3" transform="translate(471.974609 0.015625)"/>
      <use xlink:href="#DejaVuSans-53" transform="translate(503.761719 0.015625)"/>
      <use xlink:href="#DejaVuSans-52" transform="translate(567.238281 0.015625)"/>
      <use xlink:href="#DejaVuSans-57" transform="translate(628.419922 0.015625)"/>
      <use xlink:href="#DejaVuSans-48" transform="translate(667.628906 0.015625)"/>
      <use xlink:href="#DejaVuSans-51" transform="translate(729.152344 0.015625)"/>
      <use xlink:href="#DejaVuSans-57" transform="translate(792.53125 0.015625)"/>
      <use xlink:href="#DejaVuSans-4c" transform="translate(831.740234 0.015625)"/>
      <use xlink:href="#DejaVuSans-44" transform="translate(859.523438 0.015625)"/>
      <use xlink:href="#DejaVuSans-4f" transform="translate(920.802734 0.015625)"/>
      <use xlink:href="#DejaVuSans-3" transform="translate(948.585938 0.015625)"/>
      <use xlink:href="#DejaVuSans-33a" transform="translate(980.373047 0.015625)"/>
      <use xlink:href="#DejaVuSans-3" transform="translate(1059.083984 0.015625)"/>
      <use xlink:href="#DejaVuSans-b" transform="translate(1090.871094 0.015625)"/>
      <use xlink:href="#DejaVuSans-39" transform="translate(1129.884766 0.015625)"/>
      <use xlink:href="#DejaVuSans-c" transform="translate(1198.292969 0.015625)"/>
     </g>
    </g>
   </g>
   <g id="line2d_31">
    <path d="M 72 259.937934 
L 518.4 340.221916 
L 518.4 340.221916 
" clip-path="url(#p7b2f0d2f66)" style="fill: none; stroke: #0000ff; stroke-width: 2; stroke-linecap: square"/>
   </g>
   <g id="line2d_32">
    <path d="M 151.30083 320.4 
L 151.30083 43.2 
" clip-path="url(#p7b2f0d2f66)" style="fill: none; stroke-dasharray: 3.7,1.6; stroke-dashoffset: 0; stroke: #000000"/>
   </g>
   <g id="patch_3">
    <path d="M 72 320.4 
L 72 43.2 
" style="fill: none; stroke: #000000; stroke-width: 0.8; stroke-linejoin: miter; stroke-linecap: square"/>
   </g>
   <g id="patch_4">
    <path d="M 518.4 320.4 
L 518.4 43.2 
" style="fill: none; stroke: #000000; stroke-width: 0.8; stroke-linejoin: miter; stroke-linecap: square"/>
   </g>
   <g id="patch_5">
    <path d="M 72 320.4 
L 518.4 320.4 
" style="fill: none; stroke: #000000; stroke-width: 0.8; stroke-linejoin: miter; stroke-linecap: square"/>
   </g>
   <g id="patch_6">
    <path d="M 72 43.2 
L 518.4 43.2 
" style="fill: none; stroke: #000000; stroke-width: 0.8; stroke-linejoin: miter; stroke-linecap: square"/>
   </g>
   <g id="text_18">
    <!-- $T \approx 178$ °C -->
    <g transform="translate(157.99683 135.6) scale(0.1 -0.1)">
     <defs>
      <path id="DejaVuSans-Oblique-37" d="M 378 4666 
L 4325 4666 
L 4225 4134 
L 2559 4134 
L 1759 0 
L 1125 0 
L 1925 4134 
L 275 4134 
L 378 4666 
z
" transform="scale(0.015625)"/>
      <path id="DejaVuSans-cd2" d="M 4684 1947 
L 4684 1388 
Q 4356 1144 4076 1036 
Q 3797 928 3494 928 
Q 3150 928 2694 1113 
Q 2663 1125 2641 1134 
Q 2622 1141 2575 1159 
Q 2091 1350 1797 1350 
Q 1522 1350 1253 1231 
Q 984 1113 678 850 
L 678 1409 
Q 1006 1653 1286 1761 
Q 1566 1869 1869 1869 
Q 2213 1869 2672 1684 
Q 2706 1669 2722 1663 
Q 2741 1656 2788 1638 
Q 3272 1447 3566 1447 
Q 3834 1447 4098 1564 
Q 4363 1681 4684 1947 
z
M 4684 3163 
L 4684 2606 
Q 4356 2359 4076 2251 
Q 3797 2144 3494 2144 
Q 3150 2144 2694 2328 
Q 2663 2341 2641 2350 
Q 2622 2356 2575 2375 
Q 2091 2566 1797 2566 
Q 1522 2566 1253 2447 
Q 984 2328 678 2069 
L 678 2625 
Q 1006 2869 1286 2976 
Q 1566 3084 1869 3084 
Q 2213 3084 2672 2900 
Q 2703 2888 2719 2881 
Q 2741 2872 2788 2853 
Q 3272 2663 3566 2663 
Q 3834 2663 4098 2780 
Q 4363 2897 4684 3163 
z
" transform="scale(0.015625)"/>
      <path id="DejaVuSans-1a" d="M 525 4666 
L 3525 4666 
L 3525 4397 
L 1831 0 
L 1172 0 
L 2766 4134 
L 525 4134 
L 525 4666 
z
" transform="scale(0.015625)"/>
     </defs>
     <use xlink:href="#DejaVuSans-Oblique-37" transform="translate(0 0.78125)"/>
     <use xlink:href="#DejaVuSans-cd2" transform="translate(80.566406 0.78125)"/>
     <use xlink:href="#DejaVuSans-14" transform="translate(183.837891 0.78125)"/>
     <use xlink:href="#DejaVuSans-1a" transform="translate(247.460938 0.78125)"/>
     <use xlink:href="#DejaVuSans-1b" transform="translate(311.083984 0.78125)"/>
     <use xlink:href="#DejaVuSans-3" transform="translate(374.707031 0.78125)"/>
     <use xlink:href="#DejaVuSans-72" transform="translate(406.494141 0.78125)"/>
     <use xlink:href="#DejaVuSans-26" transform="translate(456.494141 0.78125)"/>
    </g>
   </g>
   <g id="text_19">
    <!-- Feasibility map for OR1: CH$_3$OH $\rightleftharpoons$ CO + 4H$^+$ + 4e$^-$ -->
    <g transform="translate(136.02 37.2) scale(0.12 -0.12)">
     <defs>
      <path id="DejaVuSans-29" d="M 628 4666 
L 3309 4666 
L 3309 4134 
L 1259 4134 
L 1259 2759 
L 3109 2759 
L 3109 2228 
L 1259 2228 
L 1259 0 
L 628 0 
L 628 4666 
z
" transform="scale(0.015625)"/>
      <path id="DejaVuSans-56" d="M 2834 3397 
L 2834 2853 
Q 2591 2978 2328 3040 
Q 2066 3103 1784 3103 
Q 1356 3103 1142 2972 
Q 928 2841 928 2578 
Q 928 2378 1081 2264 
Q 1234 2150 1697 2047 
L 1894 2003 
Q 2506 1872 2764 1633 
Q 3022 1394 3022 966 
Q 3022 478 2636 193 
Q 2250 -91 1575 -91 
Q 1294 -91 989 -36 
Q 684 19 347 128 
L 347 722 
Q 666 556 975 473 
Q 1284 391 1588 391 
Q 1994 391 2212 530 
Q 2431 669 2431 922 
Q 2431 1156 2273 1281 
Q 2116 1406 1581 1522 
L 1381 1569 
Q 847 1681 609 1914 
Q 372 2147 372 2553 
Q 372 3047 722 3315 
Q 1072 3584 1716 3584 
Q 2034 3584 2315 3537 
Q 2597 3491 2834 3397 
z
" transform="scale(0.015625)"/>
      <path id="DejaVuSans-45" d="M 3116 1747 
Q 3116 2381 2855 2742 
Q 2594 3103 2138 3103 
Q 1681 3103 1420 2742 
Q 1159 2381 1159 1747 
Q 1159 1113 1420 752 
Q 1681 391 2138 391 
Q 2594 391 2855 752 
Q 3116 1113 3116 1747 
z
M 1159 2969 
Q 1341 3281 1617 3432 
Q 1894 3584 2278 3584 
Q 2916 3584 3314 3078 
Q 3713 2572 3713 1747 
Q 3713 922 3314 415 
Q 2916 -91 2278 -91 
Q 1894 -91 1617 61 
Q 1341 213 1159 525 
L 1159 0 
L 581 0 
L 581 4863 
L 1159 4863 
L 1159 2969 
z
" transform="scale(0.015625)"/>
      <path id="DejaVuSans-5c" d="M 2059 -325 
Q 1816 -950 1584 -1140 
Q 1353 -1331 966 -1331 
L 506 -1331 
L 506 -850 
L 844 -850 
Q 1081 -850 1212 -737 
Q 1344 -625 1503 -206 
L 1606 56 
L 191 3500 
L 800 3500 
L 1894 763 
L 2988 3500 
L 3597 3500 
L 2059 -325 
z
" transform="scale(0.015625)"/>
      <path id="DejaVuSans-49" d="M 2375 4863 
L 2375 4384 
L 1825 4384 
Q 1516 4384 1395 4259 
Q 1275 4134 1275 3809 
L 1275 3500 
L 2222 3500 
L 2222 3053 
L 1275 3053 
L 1275 0 
L 697 0 
L 697 3053 
L 147 3053 
L 147 3500 
L 697 3500 
L 697 3744 
Q 697 4328 969 4595 
Q 1241 4863 1831 4863 
L 2375 4863 
z
" transform="scale(0.015625)"/>
      <path id="DejaVuSans-32" d="M 2522 4238 
Q 1834 4238 1429 3725 
Q 1025 3213 1025 2328 
Q 1025 1447 1429 934 
Q 1834 422 2522 422 
Q 3209 422 3611 934 
Q 4013 1447 4013 2328 
Q 4013 3213 3611 3725 
Q 3209 4238 2522 4238 
z
M 2522 4750 
Q 3503 4750 4090 4092 
Q 4678 3434 4678 2328 
Q 4678 1225 4090 567 
Q 3503 -91 2522 -91 
Q 1538 -91 948 565 
Q 359 1222 359 2328 
Q 359 3434 948 4092 
Q 1538 4750 2522 4750 
z
" transform="scale(0.015625)"/>
      <path id="DejaVuSans-35" d="M 2841 2188 
Q 3044 2119 3236 1894 
Q 3428 1669 3622 1275 
L 4263 0 
L 3584 0 
L 2988 1197 
Q 2756 1666 2539 1819 
Q 2322 1972 1947 1972 
L 1259 1972 
L 1259 0 
L 628 0 
L 628 4666 
L 2053 4666 
Q 2853 4666 3247 4331 
Q 3641 3997 3641 3322 
Q 3641 2881 3436 2590 
Q 3231 2300 2841 2188 
z
M 1259 4147 
L 1259 2491 
L 2053 2491 
Q 2509 2491 2742 2702 
Q 2975 2913 2975 3322 
Q 2975 3731 2742 3939 
Q 2509 4147 2053 4147 
L 1259 4147 
z
" transform="scale(0.015625)"/>
      <path id="DejaVuSans-1d" d="M 750 794 
L 1409 794 
L 1409 0 
L 750 0 
L 750 794 
z
M 750 3309 
L 1409 3309 
L 1409 2516 
L 750 2516 
L 750 3309 
z
" transform="scale(0.015625)"/>
      <path id="DejaVuSans-2b" d="M 628 4666 
L 1259 4666 
L 1259 2753 
L 3553 2753 
L 3553 4666 
L 4184 4666 
L 4184 0 
L 3553 0 
L 3553 2222 
L 1259 2222 
L 1259 0 
L 628 0 
L 628 4666 
z
" transform="scale(0.015625)"/>
      <path id="DejaVuSans-16" d="M 2597 2516 
Q 3050 2419 3304 2112 
Q 3559 1806 3559 1356 
Q 3559 666 3084 287 
Q 2609 -91 1734 -91 
Q 1441 -91 1130 -33 
Q 819 25 488 141 
L 488 750 
Q 750 597 1062 519 
Q 1375 441 1716 441 
Q 2309 441 2620 675 
Q 2931 909 2931 1356 
Q 2931 1769 2642 2001 
Q 2353 2234 1838 2234 
L 1294 2234 
L 1294 2753 
L 1863 2753 
Q 2328 2753 2575 2939 
Q 2822 3125 2822 3475 
Q 2822 3834 2567 4026 
Q 2313 4219 1838 4219 
Q 1578 4219 1281 4162 
Q 984 4106 628 3988 
L 628 4550 
Q 988 4650 1302 4700 
Q 1616 4750 1894 4750 
Q 2613 4750 3031 4423 
Q 3450 4097 3450 3541 
Q 3450 3153 3228 2886 
Q 3006 2619 2597 2516 
z
" transform="scale(0.015625)"/>
      <path id="DejaVuSans-c56" d="M 313 1678 
L 4997 1678 
L 4997 1147 
L 1188 1147 
L 1916 419 
L 1541 44 
L 313 1272 
L 313 1678 
z
M 5050 2335 
L 366 2335 
L 366 2866 
L 4175 2866 
L 3447 3594 
L 3822 3969 
L 5050 2741 
L 5050 2335 
z
" transform="scale(0.015625)"/>
      <path id="DejaVuSans-e" d="M 2944 4013 
L 2944 2272 
L 4684 2272 
L 4684 1741 
L 2944 1741 
L 2944 0 
L 2419 0 
L 2419 1741 
L 678 1741 
L 678 2272 
L 2419 2272 
L 2419 4013 
L 2944 4013 
z
" transform="scale(0.015625)"/>
     </defs>
     <use xlink:href="#DejaVuSans-29" transform="translate(0 0.807813)"/>
     <use xlink:href="#DejaVuSans-48" transform="translate(52.519531 0.807813)"/>
     <use xlink:href="#DejaVuSans-44" transform="translate(114.042969 0.807813)"/>
     <use xlink:href="#DejaVuSans-56" transform="translate(175.322266 0.807813)"/>
     <use xlink:href="#DejaVuSans-4c" transform="translate(227.421875 0.807813)"/>
     <use xlink:href="#DejaVuSans-45" transform="translate(255.205078 0.807813)"/>
     <use xlink:href="#DejaVuSans-4c" transform="translate(318.681641 0.807813)"/>
     <use xlink:href="#DejaVuSans-4f" transform="translate(346.464844 0.807813)"/>
     <use xlink:href="#DejaVuSans-4c" transform="translate(374.248047 0.807813)"/>
     <use xlink:href="#DejaVuSans-57" transform="translate(402.03125 0.807813)"/>
     <use xlink:href="#DejaVuSans-5c" transform="translate(441.240234 0.807813)"/>
     <use xlink:href="#DejaVuSans-3" transform="translate(500.419922 0.807813)"/>
     <use xlink:href="#DejaVuSans-50" transform="translate(532.207031 0.807813)"/>
     <use xlink:href="#DejaVuSans-44" transform="translate(629.619141 0.807813)"/>
     <use xlink:href="#DejaVuSans-53" transform="translate(690.898438 0.807813)"/>
     <use xlink:href="#DejaVuSans-3" transform="translate(754.375 0.807813)"/>
     <use xlink:href="#DejaVuSans-49" transform="translate(786.162109 0.807813)"/>
     <use xlink:href="#DejaVuSans-52" transform="translate(821.367188 0.807813)"/>
     <use xlink:href="#DejaVuSans-55" transform="translate(882.548828 0.807813)"/>
     <use xlink:href="#DejaVuSans-3" transform="translate(923.662109 0.807813)"/>
     <use xlink:href="#DejaVuSans-32" transform="translate(955.449219 0.807813)"/>
     <use xlink:href="#DejaVuSans-35" transform="translate(1034.160156 0.807813)"/>
     <use xlink:href="#DejaVuSans-14" transform="translate(1103.642578 0.807813)"/>
     <use xlink:href="#DejaVuSans-1d" transform="translate(1167.265625 0.807813)"/>
     <use xlink:href="#DejaVuSans-3" transform="translate(1200.957031 0.807813)"/>
     <use xlink:href="#DejaVuSans-26" transform="translate(1232.744141 0.807813)"/>
     <use xlink:href="#DejaVuSans-2b" transform="translate(1302.568359 0.807813)"/>
     <use xlink:href="#DejaVuSans-16" transform="translate(1378.720703 -14.192139) scale(0.7)"/>
     <use xlink:href="#DejaVuSans-32" transform="translate(1425.991211 0.807813)"/>
     <use xlink:href="#DejaVuSans-2b" transform="translate(1504.702148 0.807813)"/>
     <use xlink:href="#DejaVuSans-3" transform="translate(1579.897461 0.807813)"/>
     <use xlink:href="#DejaVuSans-c56" transform="translate(1631.166992 0.807813)"/>
     <use xlink:href="#DejaVuSans-3" transform="translate(1734.438477 0.807813)"/>
     <use xlink:href="#DejaVuSans-26" transform="translate(1766.225586 0.807813)"/>
     <use xlink:href="#DejaVuSans-32" transform="translate(1836.049805 0.807813)"/>
     <use xlink:href="#DejaVuSans-3" transform="translate(1914.760742 0.807813)"/>
     <use xlink:href="#DejaVuSans-e" transform="translate(1946.547852 0.807813)"/>
     <use xlink:href="#DejaVuSans-3" transform="translate(2030.336914 0.807813)"/>
     <use xlink:href="#DejaVuSans-17" transform="translate(2062.124023 0.807813)"/>
     <use xlink:href="#DejaVuSans-2b" transform="translate(2125.74707 0.807813)"/>
     <use xlink:href="#DejaVuSans-e" transform="translate(2215.537109 42.107813) scale(0.7)"/>
     <use xlink:href="#DejaVuSans-3" transform="translate(2290.561523 0.807813)"/>
     <use xlink:href="#DejaVuSans-e" transform="translate(2322.348633 0.807813)"/>
     <use xlink:href="#DejaVuSans-3" transform="translate(2406.137695 0.807813)"/>
     <use xlink:href="#DejaVuSans-17" transform="translate(2437.924805 0.807813)"/>
     <use xlink:href="#DejaVuSans-48" transform="translate(2501.547852 0.807813)"/>
     <use xlink:href="#DejaVuSans-c9c" transform="translate(2577.666016 42.107813) scale(0.7)"/>
    </g>
   </g>
   <g id="legend_1">
    <g id="patch_7">
     <path d="M 304.28125 96.801562 
L 511.4 96.801562 
Q 513.4 96.801562 513.4 94.801562 
L 513.4 50.2 
Q 513.4 48.2 511.4 48.2 
L 304.28125 48.2 
Q 302.28125 48.2 302.28125 50.2 
L 302.28125 94.801562 
Q 302.28125 96.801562 304.28125 96.801562 
z
" style="fill: #ffffff; opacity: 0.8; stroke: #cccccc; stroke-linejoin: miter"/>
    </g>
    <g id="line2d_33">
     <path d="M 306.28125 56.3 
L 316.28125 56.3 
L 326.28125 56.3 
" style="fill: none; stroke: #0000ff; stroke-width: 2; stroke-linecap: square"/>
    </g>
    <g id="text_20">
     <!-- $\Phi = E_{\mathrm{eq,OR1}}(T)$ -->
     <g transform="translate(334.28125 59.8) scale(0.1 -0.1)">
      <defs>
       <path id="DejaVuSans-20" d="M 678 2906 
L 4684 2906 
L 4684 2381 
L 678 2381 
L 678 2906 
z
M 678 1631 
L 4684 1631 
L 4684 1100 
L 678 1100 
L 678 1631 
z
" transform="scale(0.015625)"/>
       <path id="DejaVuSans-Oblique-28" d="M 1081 4666 
L 4031 4666 
L 3928 4134 
L 1606 4134 
L 1338 2753 
L 3566 2753 
L 3463 2222 
L 1234 2222 
L 909 531 
L 3284 531 
L 3181 0 
L 172 0 
L 1081 4666 
z
" transform="scale(0.015625)"/>
       <path id="DejaVuSans-54" d="M 947 1747 
Q 947 1113 1208 752 
Q 1469 391 1925 391 
Q 2381 391 2643 752 
Q 2906 1113 2906 1747 
Q 2906 2381 2643 2742 
Q 2381 3103 1925 3103 
Q 1469 3103 1208 2742 
Q 947 2381 947 1747 
z
M 2906 525 
Q 2725 213 2448 61 
Q 2172 -91 1784 -91 
Q 1150 -91 751 415 
Q 353 922 353 1747 
Q 353 2572 751 3078 
Q 1150 3584 1784 3584 
Q 2172 3584 2448 3432 
Q 2725 3281 2906 2969 
L 2906 3500 
L 3481 3500 
L 3481 -1331 
L 2906 -1331 
L 2906 525 
z
" transform="scale(0.015625)"/>
       <path id="DejaVuSans-f" d="M 750 794 
L 1409 794 
L 1409 256 
L 897 -744 
L 494 -744 
L 750 256 
L 750 794 
z
" transform="scale(0.015625)"/>
      </defs>
      <use xlink:href="#DejaVuSans-33a" transform="translate(0 0.125)"/>
      <use xlink:href="#DejaVuSans-20" transform="translate(98.193359 0.125)"/>
      <use xlink:href="#DejaVuSans-Oblique-28" transform="translate(201.464844 0.125)"/>
      <use xlink:href="#DejaVuSans-48" transform="translate(264.648438 -14.874951) scale(0.7)"/>
      <use xlink:href="#DejaVuSans-54" transform="translate(307.714844 -14.874951) scale(0.7)"/>
      <use xlink:href="#DejaVuSans-f" transform="translate(352.148438 -14.874951) scale(0.7)"/>
      <use xlink:href="#DejaVuSans-32" transform="translate(388.037109 -14.874951) scale(0.7)"/>
      <use xlink:href="#DejaVuSans-35" transform="translate(443.134766 -14.874951) scale(0.7)"/>
      <use xlink:href="#DejaVuSans-14" transform="translate(491.772461 -14.874951) scale(0.7)"/>
      <use xlink:href="#DejaVuSans-b" transform="translate(539.042969 0.125)"/>
      <use xlink:href="#DejaVuSans-Oblique-37" transform="translate(578.056641 0.125)"/>
      <use xlink:href="#DejaVuSans-c" transform="translate(639.140625 0.125)"/>
     </g>
    </g>
    <g id="patch_8">
     <path d="M 306.28125 75.398437 
L 326.28125 75.398437 
L 326.28125 68.398437 
L 306.28125 68.398437 
z
" style="fill: #008000; fill-opacity: 0.25; stroke: #008000; stroke-opacity: 0.25; stroke-linejoin: miter"/>
    </g>
    <g id="text_21">
     <!-- Feasible region (OR1 spontaneous) -->
     <g transform="translate(334.28125 75.398437) scale(0.1 -0.1)">
      <defs>
       <path id="DejaVuSans-4a" d="M 2906 1791 
Q 2906 2416 2648 2759 
Q 2391 3103 1925 3103 
Q 1463 3103 1205 2759 
Q 947 2416 947 1791 
Q 947 1169 1205 825 
Q 1463 481 1925 481 
Q 2391 481 2648 825 
Q 2906 1169 2906 1791 
z
M 3481 434 
Q 3481 -459 3084 -895 
Q 2688 -1331 1869 -1331 
Q 1566 -1331 1297 -1286 
Q 1028 -1241 775 -1147 
L 775 -588 
Q 1028 -725 1275 -790 
Q 1522 -856 1778 -856 
Q 2344 -856 2625 -561 
Q 2906 -266 2906 331 
L 2906 616 
Q 2728 306 2450 153 
Q 2172 0 1784 0 
Q 1141 0 747 490 
Q 353 981 353 1791 
Q 353 2603 747 3093 
Q 1141 3584 1784 3584 
Q 2172 3584 2450 3431 
Q 2728 3278 2906 2969 
L 2906 3500 
L 3481 3500 
L 3481 434 
z
" transform="scale(0.015625)"/>
      </defs>
      <use xlink:href="#DejaVuSans-29"/>
      <use xlink:href="#DejaVuSans-48" transform="translate(52.046875 0)"/>
      <use xlink:href="#DejaVuSans-44" transform="translate(113.578125 0)"/>
      <use xlink:href="#DejaVuSans-56" transform="translate(174.859375 0)"/>
      <use xlink:href="#DejaVuSans-4c" transform="translate(226.953125 0)"/>
      <use xlink:href="#DejaVuSans-45" transform="translate(254.734375 0)"/>
      <use xlink:href="#DejaVuSans-4f" transform="translate(318.21875 0)"/>
      <use xlink:href="#DejaVuSans-48" transform="translate(346 0)"/>
      <use xlink:href="#DejaVuSans-3" transform="translate(407.53125 0)"/>
      <use xlink:href="#DejaVuSans-55" transform="translate(439.3125 0)"/>
      <use xlink:href="#DejaVuSans-48" transform="translate(478.21875 0)"/>
      <use xlink:href="#DejaVuSans-4a" transform="translate(539.75 0)"/>
      <use xlink:href="#DejaVuSans-4c" transform="translate(603.234375 0)"/>
      <use xlink:href="#DejaVuSans-52" transform="translate(631.015625 0)"/>
      <use xlink:href="#DejaVuSans-51" transform="translate(692.203125 0)"/>
      <use xlink:href="#DejaVuSans-3" transform="translate(755.578125 0)"/>
      <use xlink:href="#DejaVuSans-b" transform="translate(787.359375 0)"/>
      <use xlink:href="#DejaVuSans-32" transform="translate(826.375 0)"/>
      <use xlink:href="#DejaVuSans-35" transform="translate(905.09375 0)"/>
      <use xlink:href="#DejaVuSans-14" transform="translate(974.578125 0)"/>
      <use xlink:href="#DejaVuSans-3" transform="translate(1038.203125 0)"/>
      <use xlink:href="#DejaVuSans-56" transform="translate(1069.984375 0)"/>
      <use xlink:href="#DejaVuSans-53" transform="translate(1122.078125 0)"/>
      <use xlink:href="#DejaVuSans-52" transform="translate(1185.5625 0)"/>
      <use xlink:href="#DejaVuSans-51" transform="translate(1246.75 0)"/>
      <use xlink:href="#DejaVuSans-57" transform="translate(1310.125 0)"/>
      <use xlink:href="#DejaVuSans-44" transform="translate(1349.328125 0)"/>
      <use xlink:href="#DejaVuSans-51" transform="translate(1410.609375 0)"/>
      <use xlink:href="#DejaVuSans-48" transform="translate(1473.984375 0)"/>
      <use xlink:href="#DejaVuSans-52" transform="translate(1535.515625 0)"/>
      <use xlink:href="#DejaVuSans-58" transform="translate(1596.703125 0)"/>
      <use xlink:href="#DejaVuSans-56" transform="translate(1660.078125 0)"/>
      <use xlink:href="#DejaVuSans-c" transform="translate(1712.171875 0)"/>
     </g>
    </g>
    <g id="patch_9">
     <path d="M 306.28125 90.399219 
L 326.28125 90.399219 
L 326.28125 83.399219 
L 306.28125 83.399219 
z
" style="fill: #ff0000; fill-opacity: 0.15; stroke: #ff0000; stroke-opacity: 0.15; stroke-linejoin: miter"/>
    </g>
    <g id="text_22">
     <!-- Not feasible -->
     <g transform="translate(334.28125 90.399219) scale(0.1 -0.1)">
      <defs>
       <path id="DejaVuSans-31" d="M 628 4666 
L 1478 4666 
L 3547 763 
L 3547 4666 
L 4159 4666 
L 4159 0 
L 3309 0 
L 1241 3903 
L 1241 0 
L 628 0 
L 628 4666 
z
" transform="scale(0.015625)"/>
      </defs>
      <use xlink:href="#DejaVuSans-31"/>
      <use xlink:href="#DejaVuSans-52" transform="translate(74.8125 0)"/>
      <use xlink:href="#DejaVuSans-57" transform="translate(136 0)"/>
      <use xlink:href="#DejaVuSans-3" transform="translate(175.203125 0)"/>
      <use xlink:href="#DejaVuSans-49" transform="translate(206.984375 0)"/>
      <use xlink:href="#DejaVuSans-48" transform="translate(242.1875 0)"/>
      <use xlink:href="#DejaVuSans-44" transform="translate(303.71875 0)"/>
      <use xlink:href="#DejaVuSans-56" transform="translate(365 0)"/>
      <use xlink:href="#DejaVuSans-4c" transform="translate(417.09375 0)"/>
      <use xlink:href="#DejaVuSans-45" transform="translate(444.875 0)"/>
      <use xlink:href="#DejaVuSans-4f" transform="translate(508.359375 0)"/>
      <use xlink:href="#DejaVuSans-48" transform="translate(536.140625 0)"/>
     </g>
    </g>
   </g>
  </g>
 </g>
 <defs>
  <clipPath id="p7b2f0d2f66">
   <rect x="72" y="43.2" width="446.4" height="277.2"/>
  </clipPath>
 </defs>
</svg>
